<?xml version="1.0" encoding="UTF-8" standalone="no"?><!DOCTYPE svg PUBLIC "-//W3C//DTD SVG 1.1//EN" "http://www.w3.org/Graphics/SVG/1.1/DTD/svg11.dtd"><svg width="100%" height="100%" viewBox="0 0 10 11" version="1.1" xmlns="http://www.w3.org/2000/svg" xmlns:xlink="http://www.w3.org/1999/xlink" xml:space="preserve" xmlns:serif="http://www.serif.com/" style="fill-rule:evenodd;clip-rule:evenodd;stroke-linejoin:round;stroke-miterlimit:2;"><path id="asalto-negocio" d="M0.491,0.991l0,1.073l-0.026,0.181c-0.097,0.544 -0.16,1.093 -0.189,1.644c-0.014,0.293 0.066,0.582 0.228,0.826l-0.013,-0.007l0,5.301l9.017,0l0,-5.301l-0.013,0.007c0.162,-0.244 0.243,-0.533 0.229,-0.826c-0.029,-0.551 -0.092,-1.1 -0.189,-1.644l-0.033,-0.181l0.006,0l0,-1.073l-9.017,0Zm0.362,1.503l0.926,0l0,1.912c-0.14,0.147 -0.333,0.232 -0.536,0.235c-0.356,0 -0.537,-0.253 -0.537,-0.756c0.022,-0.466 0.071,-0.931 0.147,-1.391Zm1.356,0l1.073,0l0,1.912c-0.138,0.149 -0.333,0.234 -0.536,0.234c-0.204,0 -0.398,-0.085 -0.537,-0.234l0,-1.912Zm1.503,0l1.074,0l0,1.912c-0.139,0.149 -0.333,0.234 -0.537,0.234c-0.204,0 -0.398,-0.085 -0.537,-0.234l0,-1.912Zm1.503,0l1.074,0l0,1.912c-0.139,0.149 -0.333,0.234 -0.537,0.234c-0.204,0 -0.398,-0.085 -0.537,-0.234l0,-1.912Zm1.504,0l1.073,0l0,1.912c-0.139,0.149 -0.333,0.234 -0.537,0.234c-0.203,0 -0.398,-0.085 -0.536,-0.234l0,-1.912Zm1.503,0l0.919,0c0.08,0.461 0.131,0.927 0.154,1.395c0,0.499 -0.18,0.756 -0.537,0.756c-0.203,-0.004 -0.396,-0.089 -0.536,-0.235l0,-1.916Zm-6.443,3.65l3.435,0l0,2.577l-3.435,0l0,-2.577Zm4.51,0l1.932,0l0,3.436l-1.932,0l0,-3.436Z" style="fill:#fff;fill-rule:nonzero;"/></svg>