<?xml version="1.0" encoding="UTF-8" standalone="no"?><!DOCTYPE svg PUBLIC "-//W3C//DTD SVG 1.1//EN" "http://www.w3.org/Graphics/SVG/1.1/DTD/svg11.dtd"><svg width="100%" height="100%" viewBox="0 0 10 11" version="1.1" xmlns="http://www.w3.org/2000/svg" xmlns:xlink="http://www.w3.org/1999/xlink" xml:space="preserve" xmlns:serif="http://www.serif.com/" style="fill-rule:evenodd;clip-rule:evenodd;stroke-linejoin:round;stroke-miterlimit:2;"><g><path id="Trazado_16" d="M8.221,10.207l0,-0.293l-2.93,0l0,0.293c0,0.161 0.132,0.293 0.293,0.293l2.344,0c0.161,0 0.293,-0.132 0.293,-0.293Z" style="fill:#fff;fill-rule:nonzero;"/><path id="Trazado_17" d="M4.705,10.207l0,-0.293l-2.93,0l0,0.293c0,0.161 0.132,0.293 0.293,0.293l2.344,0c0.161,0 0.293,-0.132 0.293,-0.293Z" style="fill:#fff;fill-rule:nonzero;"/><path id="Trazado_18" d="M9.392,0.5c-0.321,0.001 -0.585,0.265 -0.586,0.586l0,3.262c0.001,0.078 -0.031,0.152 -0.088,0.205l-1.172,1.172c-0.054,0.051 -0.126,0.08 -0.2,0.08c-0.159,0 -0.29,-0.131 -0.29,-0.29c0,-0.074 0.029,-0.146 0.08,-0.2l0.92,-0.926c0.107,-0.109 0.167,-0.257 0.167,-0.41c0,-0.322 -0.264,-0.586 -0.586,-0.586c-0.158,0 -0.309,0.063 -0.419,0.176l-1.5,1.5c-0.253,0.255 -0.403,0.594 -0.42,0.953c0.093,-0.033 0.192,-0.05 0.29,-0.05c0.479,0 0.872,0.394 0.872,0.872c0,0.047 -0.003,0.094 -0.011,0.141l1.771,0l0,-0.153l0.58,-0.469c0.728,-0.551 1.169,-1.402 1.2,-2.314l0,-2.963c-0.008,-0.327 -0.281,-0.59 -0.608,-0.586Z" style="fill:#fff;fill-rule:nonzero;"/><path id="Trazado_19" d="M8.514,7.57l-2.332,0l-0.338,0.586l2.67,0c0.161,0 0.293,-0.132 0.293,-0.293c0,-0.161 -0.132,-0.293 -0.293,-0.293Z" style="fill:#fff;fill-rule:nonzero;"/><path id="Trazado_20" d="M1.482,8.156l2.332,0l0.338,-0.586l-2.67,0c-0.161,0 -0.293,0.132 -0.293,0.293c0,0.161 0.132,0.293 0.293,0.293Z" style="fill:#fff;fill-rule:nonzero;"/><path id="Trazado_21" d="M1.482,9.328l2.18,0c-0.106,-0.176 -0.147,-0.383 -0.116,-0.586l-2.064,0c-0.161,0 -0.293,0.132 -0.293,0.293c0,0.161 0.132,0.293 0.293,0.293Z" style="fill:#fff;fill-rule:nonzero;"/><path id="Trazado_22" d="M8.806,9.035c0,-0.161 -0.132,-0.293 -0.293,-0.293l-3.007,0l-0.332,0.575c0,0 -0.006,0.007 -0.008,0.011l3.348,0c0.16,-0.001 0.292,-0.133 0.292,-0.293Z" style="fill:#fff;fill-rule:nonzero;"/><path id="Trazado_23" d="M1.198,6.363l0.58,0.469l0,0.152l2.712,0l0.215,-0.372l0,-0.507c0.001,-0.389 -0.153,-0.762 -0.428,-1.037l-1.5,-1.5c-0.11,-0.113 -0.261,-0.176 -0.419,-0.176c-0.322,0 -0.586,0.264 -0.586,0.586c0,0.153 0.06,0.301 0.167,0.41l0.92,0.926c0.051,0.054 0.08,0.126 0.08,0.2c0,0.159 -0.131,0.29 -0.29,0.29c-0.074,0 -0.146,-0.029 -0.2,-0.08l-1.172,-1.171c-0.057,-0.053 -0.089,-0.127 -0.088,-0.205l0,-3.262c-0.001,-0.321 -0.265,-0.585 -0.586,-0.586c-0.326,-0.003 -0.597,0.26 -0.605,0.586l0,2.963c0.031,0.912 0.472,1.763 1.2,2.314Z" style="fill:#fff;fill-rule:nonzero;"/><path id="Trazado_24" d="M5.731,6.594c-0.139,-0.08 -0.32,-0.032 -0.4,0.107l-1.172,2.03c-0.026,0.045 -0.039,0.095 -0.039,0.147c0,0.16 0.132,0.293 0.293,0.293c0.105,0 0.202,-0.056 0.254,-0.147l1.172,-2.03c0.08,-0.139 0.031,-0.32 -0.108,-0.4Z" style="fill:#fff;fill-rule:nonzero;"/></g></svg>