<?xml version="1.0" encoding="UTF-8" standalone="no"?><!DOCTYPE svg PUBLIC "-//W3C//DTD SVG 1.1//EN" "http://www.w3.org/Graphics/SVG/1.1/DTD/svg11.dtd"><svg width="100%" height="100%" viewBox="0 0 10 11" version="1.1" xmlns="http://www.w3.org/2000/svg" xmlns:xlink="http://www.w3.org/1999/xlink" xml:space="preserve" xmlns:serif="http://www.serif.com/" style="fill-rule:evenodd;clip-rule:evenodd;stroke-linejoin:round;stroke-miterlimit:2;"><path id="transeuntes" d="M5.757,1.816c0.498,0 0.908,-0.41 0.908,-0.908c0,-0.498 -0.41,-0.908 -0.908,-0.908c-0.498,0 -0.908,0.41 -0.908,0.908c0,0.001 0,0.002 0,0.004c0,0.496 0.408,0.904 0.905,0.904c0.001,0 0.002,0 0.003,0Zm0.051,3.129l2.472,0l0,-0.908l-1.816,0l-1.01,-1.665c-0.161,-0.268 -0.445,-0.438 -0.757,-0.454c-0.088,-0.008 -0.176,0.01 -0.254,0.051l-2.723,0.856l0,2.627l0.908,0l0,-1.864l1.06,-0.353l-1.968,7.765l0.908,0l1.464,-4.087l1.161,1.564l0,2.523l0.908,0l0,-3.23l-1.261,-2.27l0.353,-1.463l0.555,0.908Z" style="fill:#fff;fill-rule:nonzero;"/></svg>