<?xml version="1.0" encoding="UTF-8" standalone="no"?><!DOCTYPE svg PUBLIC "-//W3C//DTD SVG 1.1//EN" "http://www.w3.org/Graphics/SVG/1.1/DTD/svg11.dtd"><svg width="100%" height="100%" viewBox="0 0 10 11" version="1.1" xmlns="http://www.w3.org/2000/svg" xmlns:xlink="http://www.w3.org/1999/xlink" xml:space="preserve" xmlns:serif="http://www.serif.com/" style="fill-rule:evenodd;clip-rule:evenodd;stroke-linejoin:round;stroke-miterlimit:2;"><path id="aeropuerto" d="M8.333,4.389l-1.984,0l-1.825,-3.193c-0.049,-0.087 -0.141,-0.14 -0.241,-0.14l-1.137,0c-0.152,0 -0.277,0.125 -0.277,0.277c0,0.026 0.003,0.052 0.01,0.077l0.851,2.979l-1.786,0l-0.75,-1c-0.052,-0.07 -0.135,-0.111 -0.222,-0.111l-0.694,0c-0.152,0 -0.277,0.125 -0.277,0.277c0,0.023 0.003,0.046 0.008,0.067l0.546,1.878l-0.547,1.878c-0.005,0.021 -0.008,0.044 -0.008,0.067c0,0.152 0.125,0.277 0.277,0.278l0.695,-0.001c0.089,0.001 0.172,-0.04 0.225,-0.111l0.75,-1l1.783,0l-0.851,2.979c-0.007,0.025 -0.01,0.051 -0.01,0.077c0,0.152 0.125,0.277 0.277,0.277l1.137,0.001c0.1,-0.001 0.192,-0.054 0.241,-0.14l1.825,-3.193l1.984,0c0.614,0 1.667,-0.5 1.667,-1.111c0,-0.611 -1.053,-1.112 -1.667,-1.112Z" style="fill:#fff;fill-rule:nonzero;"/></svg>