<?xml version="1.0" encoding="UTF-8" standalone="no"?><!DOCTYPE svg PUBLIC "-//W3C//DTD SVG 1.1//EN" "http://www.w3.org/Graphics/SVG/1.1/DTD/svg11.dtd"><svg width="100%" height="100%" viewBox="0 0 10 11" version="1.1" xmlns="http://www.w3.org/2000/svg" xmlns:xlink="http://www.w3.org/1999/xlink" xml:space="preserve" xmlns:serif="http://www.serif.com/" style="fill-rule:evenodd;clip-rule:evenodd;stroke-linejoin:round;stroke-miterlimit:2;"><g><path id="Trazado_26" d="M9.966,4.495c-0.063,-0.556 -1.561,0 -1.561,0l-0.085,0.792c-0.033,-0.019 -0.066,-0.036 -0.1,-0.052l-0.379,-1.649c-0.099,-0.791 -0.803,-1.378 -1.599,-1.334l-2.219,0c-0.014,0.091 -0.035,0.18 -0.062,0.268l2.434,0c0.52,-0.006 0.978,0.355 1.093,0.861l0.407,1.629l-0.077,0l-4.717,0l0,1.587l2.92,0l0,0.356l-2.919,0l0,0.1l2.889,0l0,0.355l-2.888,0l0,1.334l3.118,0l0,0.845c0,0.344 0.425,0.622 0.95,0.622c0.524,0 0.948,-0.278 0.948,-0.622l0,-0.942c0.43,-0.133 0.734,-0.52 0.759,-0.969l0,-1.513c-0.01,-0.339 -0.191,-0.65 -0.48,-0.827l1.569,-0.085c0.044,-0.25 0.044,-0.506 -0.001,-0.756Zm-1.799,2.885l-1.712,0l0,-0.814l1.713,0l-0.001,0.814Z" style="fill:#fff;fill-rule:nonzero;"/><rect id="Rectángulo_5" x="3.059" y="7.052" width="0.044" height="0.355" style="fill:#fff;"/><rect id="Rectángulo_6" x="3.089" y="6.593" width="0.014" height="0.355" style="fill:#fff;"/><path id="Trazado_27" d="M3.681,2.015c0.001,-0.659 -0.353,-1.27 -0.925,-1.598l0,1.473l-0.916,0.524l-0.915,-0.529l0,-1.468c-0.571,0.327 -0.925,0.937 -0.925,1.595c0,0.692 0.391,1.328 1.01,1.64l0,6.063c0,0.476 0.392,0.868 0.868,0.868c0.477,0 0.869,-0.392 0.869,-0.868l0,-6.102c0.575,-0.326 0.933,-0.937 0.934,-1.598Zm-1.612,8.088c-0.062,0.062 -0.146,0.097 -0.234,0.097c-0.182,0 -0.332,-0.149 -0.332,-0.331c0,-0.182 0.15,-0.332 0.332,-0.332c0.088,0 0.172,0.035 0.234,0.097c0.062,0.062 0.097,0.147 0.097,0.235c0,0.088 -0.035,0.172 -0.097,0.234Z" style="fill:#fff;fill-rule:nonzero;"/></g></svg>