<?xml version="1.0" encoding="UTF-8" standalone="no"?><!DOCTYPE svg PUBLIC "-//W3C//DTD SVG 1.1//EN" "http://www.w3.org/Graphics/SVG/1.1/DTD/svg11.dtd"><svg width="100%" height="100%" viewBox="0 0 10 11" version="1.1" xmlns="http://www.w3.org/2000/svg" xmlns:xlink="http://www.w3.org/1999/xlink" xml:space="preserve" xmlns:serif="http://www.serif.com/" style="fill-rule:evenodd;clip-rule:evenodd;stroke-linejoin:round;stroke-miterlimit:2;"><path id="casa-habitacion" d="M4.867,3.626l-3.201,2.636l0,2.842c0,0.153 0.125,0.278 0.278,0.278l1.948,-0.005c0.148,-0.003 0.268,-0.125 0.271,-0.273l0,-1.664c0,-0.152 0.125,-0.278 0.278,-0.278l1.113,0c0.153,0 0.278,0.126 0.278,0.278l0,1.665c0,0.153 0.125,0.278 0.278,0.278l1.948,0.005c0.152,0 0.278,-0.125 0.278,-0.278l0,-2.851l-3.2,-2.634c-0.077,-0.062 -0.189,-0.062 -0.266,0l-0.003,0.001Zm5.055,1.791l-1.452,-1.195l0,-2.402c0,-0.114 -0.094,-0.208 -0.208,-0.208l-0.971,0c-0.115,0 -0.209,0.094 -0.209,0.208l0,1.261l-1.554,-1.279c-0.307,-0.252 -0.752,-0.252 -1.059,0l-4.394,3.615c-0.088,0.073 -0.101,0.205 -0.028,0.293l0.443,0.538c0.04,0.049 0.099,0.077 0.161,0.077c0.048,0 0.096,-0.017 0.133,-0.049l4.083,-3.363c0.077,-0.063 0.189,-0.063 0.266,0l4.084,3.363c0.088,0.073 0.22,0.06 0.293,-0.028l0.443,-0.538c0.03,-0.037 0.047,-0.083 0.047,-0.132c0,-0.062 -0.029,-0.122 -0.077,-0.161l-0.001,0Z" style="fill:#fff;fill-rule:nonzero;"/></svg>