<?xml version="1.0" encoding="UTF-8" standalone="no"?><!DOCTYPE svg PUBLIC "-//W3C//DTD SVG 1.1//EN" "http://www.w3.org/Graphics/SVG/1.1/DTD/svg11.dtd"><svg width="100%" height="100%" viewBox="0 0 10 11" version="1.1" xmlns="http://www.w3.org/2000/svg" xmlns:xlink="http://www.w3.org/1999/xlink" xml:space="preserve" xmlns:serif="http://www.serif.com/" style="fill-rule:evenodd;clip-rule:evenodd;stroke-linejoin:round;stroke-miterlimit:2;"><path id="tiendas" d="M2.03,0.859c-0.431,-0.007 -0.814,0.281 -0.929,0.696c-0.235,1.16 -0.742,3.249 -0.742,3.481c0,0.509 0.419,0.928 0.928,0.928c0.254,0.001 0.495,-0.117 0.65,-0.319c0.285,0.202 0.625,0.313 0.974,0.319c0.411,0.002 0.807,-0.148 1.114,-0.42c0.252,0.268 0.604,0.42 0.972,0.42c0.368,0 0.72,-0.152 0.972,-0.42c0.298,0.286 0.701,0.438 1.114,0.42c0.351,-0.005 0.693,-0.116 0.98,-0.319c0.161,0.194 0.398,0.31 0.65,0.319c0.509,0 0.928,-0.419 0.928,-0.928c0,-0.232 -0.507,-2.321 -0.742,-3.481c-0.094,-0.409 -0.463,-0.7 -0.882,-0.696l-5.987,0Zm0.649,1.392l1.393,0l-0.421,2.042c0,0.001 0,0.003 0,0.004c0,0.407 -0.335,0.742 -0.742,0.742c-0.27,0 -0.52,-0.147 -0.65,-0.383c0.142,-0.786 0.42,-2.405 0.42,-2.405Zm3.249,0l1.393,0c0,0 0.278,1.619 0.42,2.408c-0.13,0.236 -0.38,0.383 -0.65,0.383c-0.407,0 -0.742,-0.335 -0.742,-0.742c0,-0.002 0,-0.003 0,-0.004l-0.421,-2.045Zm-5.105,4.177l0,2.321c0.003,0.762 0.63,1.389 1.392,1.392l5.57,0c0.762,-0.003 1.389,-0.63 1.392,-1.392l0,-2.321l-0.928,0l0,2.321c0,0.255 -0.21,0.464 -0.464,0.464l-0.464,0l0,-2.785l-1.857,0l0,2.785l-3.249,0c-0.254,0 -0.464,-0.209 -0.464,-0.464l0,-2.321l-0.928,0Zm1.856,0l0,1.857l1.857,0l0,-1.857l-1.857,0Z" style="fill:#fff;fill-rule:nonzero;"/></svg>