<?xml version="1.0" encoding="UTF-8" standalone="no"?><!DOCTYPE svg PUBLIC "-//W3C//DTD SVG 1.1//EN" "http://www.w3.org/Graphics/SVG/1.1/DTD/svg11.dtd"><svg width="100%" height="100%" viewBox="0 0 34 34" version="1.1" xmlns="http://www.w3.org/2000/svg" xmlns:xlink="http://www.w3.org/1999/xlink" xml:space="preserve" xmlns:serif="http://www.serif.com/" style="fill-rule:evenodd;clip-rule:evenodd;stroke-linejoin:round;stroke-miterlimit:2;"><path id="entrada-quimicos" d="M12.362,4.022c-0.505,0.004 -0.918,0.421 -0.918,0.926c0,0.508 0.418,0.926 0.926,0.926c0.508,0 0.927,-0.418 0.927,-0.926c0,0 0,0 0,0c0,-0.508 -0.419,-0.926 -0.927,-0.926c-0.003,0 -0.005,0 -0.008,0Zm-2.781,2.781c-0.509,0 -0.927,0.418 -0.927,0.926l-2.781,0l0,1.855l0.931,0l0,7.097l-5.708,7.358c-0.502,0.646 -0.775,1.442 -0.775,2.26c0,2.015 1.654,3.674 3.669,3.679l14.891,0c2.015,-0.004 3.671,-1.664 3.671,-3.679c0,-0.818 -0.273,-1.614 -0.776,-2.26l-5.707,-7.358l0,-7.097l0.926,0l0,-1.855l-6.492,0c0,-0.506 -0.416,-0.924 -0.922,-0.926Zm-0.927,2.781l5.562,0l0,7.735l0.204,0.26l2.433,3.13l-10.835,0l2.433,-3.13l0.203,-0.26l0,-7.735Zm3.708,3.707c-0.505,0.005 -0.918,0.422 -0.918,0.927c0,0.508 0.418,0.926 0.926,0.926c0.508,0 0.927,-0.418 0.927,-0.926c0,0 0,0 0,0c0,-0.508 -0.419,-0.927 -0.927,-0.927c-0.003,0 -0.005,0 -0.008,0Zm-7.792,9.27l13.731,0l2.027,2.597c0.248,0.325 0.38,0.722 0.377,1.13c0,0.007 0,0.013 0,0.02c0,0.99 -0.815,1.805 -1.805,1.805c-0.006,0 -0.013,0 -0.019,0l-14.891,0c-0.006,0 -0.013,0 -0.019,0c-0.991,0 -1.806,-0.815 -1.806,-1.805c0,-0.007 0.001,-0.013 0.001,-0.02c-0.004,-0.408 0.129,-0.805 0.376,-1.13l2.028,-2.597Z" style="fill:none;fill-rule:nonzero;stroke:#6a6e73;stroke-width:0.53px;"/></svg>