<?xml version="1.0" encoding="UTF-8" standalone="no"?><!DOCTYPE svg PUBLIC "-//W3C//DTD SVG 1.1//EN" "http://www.w3.org/Graphics/SVG/1.1/DTD/svg11.dtd"><svg width="100%" height="100%" viewBox="0 0 34 34" version="1.1" xmlns="http://www.w3.org/2000/svg" xmlns:xlink="http://www.w3.org/1999/xlink" xml:space="preserve" xmlns:serif="http://www.serif.com/" style="fill-rule:evenodd;clip-rule:evenodd;stroke-linejoin:round;stroke-miterlimit:2;"><path d="M22.926,14.445l-14.976,-5.451c-0.111,-0.042 -0.234,-0.037 -0.341,0.013c-0.108,0.05 -0.191,0.141 -0.231,0.253l-1.815,4.994c-0.084,0.23 0.033,0.485 0.263,0.57c0.23,0.084 0.485,-0.034 0.569,-0.264l1.665,-4.583l4.579,1.665l-1.213,3.33c-0.083,0.23 0.036,0.484 0.265,0.567l3.747,1.363c0.048,0.018 0.099,0.027 0.15,0.027c0.187,0 0.353,-0.117 0.417,-0.292l0.779,-2.143c0.075,-0.228 -0.044,-0.474 -0.27,-0.555c-0.225,-0.082 -0.475,0.03 -0.563,0.254l-0.628,1.727l-2.914,-1.063l1.063,-2.91l8.723,3.18l-5.15,14.17l-14.134,-5.172l2.701,-7.417c0.075,-0.228 -0.045,-0.474 -0.27,-0.555c-0.226,-0.082 -0.475,0.031 -0.563,0.254l-2.852,7.833c-0.044,0.108 -0.044,0.229 0,0.337c0.05,0.107 0.141,0.19 0.253,0.23l14.994,5.451c0.048,0.017 0.099,0.027 0.15,0.027c0.187,0 0.353,-0.117 0.416,-0.293l5.452,-14.98c0.083,-0.23 -0.036,-0.484 -0.266,-0.567Z" style="fill:#6a6e73;fill-rule:nonzero;"/><path d="M12.254,25.639c-0.228,-0.075 -0.474,0.045 -0.555,0.27c-0.082,0.226 0.031,0.475 0.254,0.563l3.33,1.213c0.048,0.018 0.099,0.027 0.15,0.027c0.215,0 0.399,-0.155 0.436,-0.367c0.037,-0.211 -0.083,-0.419 -0.285,-0.492l-1.249,-0.443l0.775,-2.13c0.159,0.031 0.321,0.048 0.483,0.049c1.116,-0.002 2.112,-0.701 2.493,-1.749l0.757,-2.082c0.084,-0.228 -0.033,-0.482 -0.261,-0.566l-4.163,-1.515c-0.109,-0.046 -0.232,-0.046 -0.341,0c-0.105,0.05 -0.186,0.139 -0.225,0.248l-0.758,2.081c-0.244,0.662 -0.212,1.395 0.089,2.033c0.046,0.094 0.099,0.184 0.159,0.27c0.013,0.036 0.033,0.069 0.058,0.097c0.227,0.338 0.53,0.617 0.886,0.815l-0.775,2.121l-1.258,-0.443Zm4.995,-3.365c-0.335,0.917 -1.349,1.391 -2.267,1.058c-0.274,-0.1 -0.518,-0.267 -0.709,-0.487l0.669,-1.098l0.553,0.753c0.089,0.12 0.233,0.186 0.382,0.178c0.149,-0.009 0.284,-0.093 0.358,-0.223l1.142,-2.019l0.479,0.173l-0.607,1.665Zm-3.326,-1.209l0.603,-1.665l2.006,0.731l-0.731,1.297l-0.54,-0.735c-0.088,-0.12 -0.229,-0.188 -0.377,-0.181c-0.147,0.006 -0.282,0.086 -0.358,0.212l-0.696,1.147c-0.031,-0.272 0.001,-0.548 0.093,-0.806Z" style="fill:#6a6e73;fill-rule:nonzero;"/><path d="M6.13,19.17c-0.23,-0.088 -0.488,0.027 -0.576,0.257c-0.088,0.229 0.027,0.487 0.257,0.575l4.162,1.515c0.049,0.017 0.1,0.026 0.151,0.026c0.066,0 0.13,-0.013 0.19,-0.04c0.106,-0.05 0.187,-0.141 0.226,-0.252l0.607,-1.665c0.083,-0.23 -0.036,-0.483 -0.266,-0.567l-4.158,-1.514c-0.154,-0.085 -0.343,-0.071 -0.482,0.036c-0.14,0.106 -0.203,0.285 -0.162,0.456c0.041,0.17 0.179,0.3 0.352,0.331l3.746,1.364l-0.301,0.851l-3.746,-1.373Z" style="fill:#6a6e73;fill-rule:nonzero;"/><path d="M9.119,23.058c0.215,-0.001 0.398,-0.155 0.435,-0.367c0.038,-0.211 -0.083,-0.419 -0.285,-0.492l-3.746,-1.364c-0.15,-0.059 -0.32,-0.032 -0.444,0.071c-0.125,0.102 -0.183,0.264 -0.154,0.423c0.03,0.158 0.144,0.288 0.297,0.338l3.742,1.364c0.05,0.018 0.102,0.027 0.155,0.027Z" style="fill:#6a6e73;fill-rule:nonzero;"/><path d="M4.925,22.5c-0.15,-0.059 -0.32,-0.032 -0.444,0.07c-0.124,0.103 -0.183,0.265 -0.153,0.424c0.029,0.158 0.143,0.288 0.296,0.338l2.073,0.753c0.048,0.018 0.099,0.027 0.15,0.027c0.215,-0.001 0.399,-0.155 0.436,-0.367c0.037,-0.211 -0.083,-0.419 -0.285,-0.492l-2.073,-0.753Z" style="fill:#6a6e73;fill-rule:nonzero;"/><path d="M23.524,9.915c-0.245,0 -0.443,0.198 -0.443,0.443l0,3.099c0,0.245 0.198,0.443 0.443,0.443c0.244,0 0.442,-0.198 0.442,-0.443l0,-3.099c0,-0.245 -0.198,-0.443 -0.442,-0.443Z" style="fill:#6a6e73;fill-rule:nonzero;"/><path d="M15.553,9.472c0.244,0 0.443,-0.198 0.443,-0.443l0,-4.871c0,-0.244 -0.199,-0.443 -0.443,-0.443c-0.245,0 -0.443,0.199 -0.443,0.443l0,4.871c0,0.245 0.198,0.443 0.443,0.443Z" style="fill:#6a6e73;fill-rule:nonzero;"/><path d="M19.981,11.686c0.245,0 0.443,-0.198 0.443,-0.443l0,-4.428c0,-0.244 -0.198,-0.443 -0.443,-0.443c-0.244,0 -0.443,0.199 -0.443,0.443l0,4.428c0,0.245 0.199,0.443 0.443,0.443Z" style="fill:#6a6e73;fill-rule:nonzero;"/><path d="M1.383,13.9c-0.245,0 -0.443,0.199 -0.443,0.443l0,7.085c0,0.245 0.198,0.443 0.443,0.443c0.244,0 0.443,-0.198 0.443,-0.443l0,-7.085c0,-0.244 -0.199,-0.443 -0.443,-0.443Z" style="fill:#6a6e73;fill-rule:nonzero;"/><path d="M4.04,11.686c0.244,0 0.442,-0.198 0.442,-0.443l0,-3.099c0,-0.245 -0.198,-0.443 -0.442,-0.443c-0.245,0 -0.443,0.198 -0.443,0.443l0,3.099c0,0.245 0.198,0.443 0.443,0.443Z" style="fill:#6a6e73;fill-rule:nonzero;"/><path d="M10.239,7.701c0.245,0 0.443,-0.198 0.443,-0.443l0,-3.1c0,-0.244 -0.198,-0.443 -0.443,-0.443c-0.244,0 -0.443,0.199 -0.443,0.443l0,3.1c0,0.245 0.199,0.443 0.443,0.443Z" style="fill:#6a6e73;fill-rule:nonzero;"/><path d="M6.697,6.815c0.244,0 0.442,-0.198 0.442,-0.443l0,-0.885c0,-0.245 -0.198,-0.443 -0.442,-0.443c-0.245,0 -0.443,0.198 -0.443,0.443l0,0.885c0,0.245 0.198,0.443 0.443,0.443Z" style="fill:#6a6e73;fill-rule:nonzero;"/></svg>