<?xml version="1.0" encoding="UTF-8" standalone="no"?><!DOCTYPE svg PUBLIC "-//W3C//DTD SVG 1.1//EN" "http://www.w3.org/Graphics/SVG/1.1/DTD/svg11.dtd"><svg width="100%" height="100%" viewBox="0 0 34 34" version="1.1" xmlns="http://www.w3.org/2000/svg" xmlns:xlink="http://www.w3.org/1999/xlink" xml:space="preserve" xmlns:serif="http://www.serif.com/" style="fill-rule:evenodd;clip-rule:evenodd;stroke-linejoin:round;stroke-miterlimit:2;"><path d="M12.08,28.664c6.398,0 11.664,-5.265 11.664,-11.664c0,-6.399 -5.266,-11.664 -11.664,-11.664c-6.399,0 -11.664,5.265 -11.664,11.664c0,6.399 5.265,11.664 11.664,11.664Zm0,-21.07c5.16,0 9.406,4.246 9.406,9.406c0,5.16 -4.246,9.406 -9.406,9.406c-5.16,0 -9.406,-4.246 -9.406,-9.406c0,-0.001 0,-0.002 0,-0.003c0,-5.158 4.245,-9.403 9.403,-9.403c0.001,0 0.002,0 0.003,0Zm0.941,15.427l-1.882,0c-0.31,0 -0.565,-0.255 -0.565,-0.565l0,-2.864l-3.16,0c-0.309,0 -0.564,-0.255 -0.564,-0.565c0,-0.15 0.06,-0.293 0.165,-0.399l4.666,-4.666c0.219,-0.218 0.579,-0.218 0.798,0l4.666,4.666c0.105,0.106 0.165,0.249 0.165,0.399c0,0.31 -0.255,0.565 -0.565,0.565l-3.159,0l0,2.851c0,0.004 0,0.009 0,0.013c0,0.31 -0.255,0.565 -0.565,0.565c0,0 0,0 0,0Z" style="fill:none;fill-rule:nonzero;stroke:#6a6e73;stroke-width:0.62px;"/><path d="M6.655,11.509l10.85,0" style="fill:none;stroke:#6a6e73;stroke-width:0.62px;stroke-linecap:round;stroke-miterlimit:1.5;"/></svg>