<?xml version="1.0" encoding="UTF-8" standalone="no"?><!DOCTYPE svg PUBLIC "-//W3C//DTD SVG 1.1//EN" "http://www.w3.org/Graphics/SVG/1.1/DTD/svg11.dtd"><svg width="100%" height="100%" viewBox="0 0 34 34" version="1.1" xmlns="http://www.w3.org/2000/svg" xmlns:xlink="http://www.w3.org/1999/xlink" xml:space="preserve" xmlns:serif="http://www.serif.com/" style="fill-rule:evenodd;clip-rule:evenodd;stroke-linejoin:round;stroke-miterlimit:2;"><g><path d="M8.671,28.777c-0.111,-0.117 -0.209,-0.231 -0.293,-0.329c-0.299,-0.359 -0.58,-0.757 -0.832,-1.185c-0.254,0.428 -0.535,0.829 -0.837,1.188c-0.084,0.101 -0.185,0.212 -0.296,0.329c0.326,0.128 0.712,0.203 1.127,0.203c0.416,0 0.805,-0.075 1.131,-0.206Z" style="fill:none;fill-rule:nonzero;stroke:#6a6e73;stroke-width:1px;"/><path d="M2.986,27.458c0,0 0.083,1.073 0.852,1.444c0.066,0.033 0.14,0.048 0.227,0.048c0.377,0 0.918,-0.314 1.475,-0.882l0,-0.003c0.379,-0.389 0.765,-0.88 1.115,-1.508c0.171,-0.299 0.332,-0.616 0.479,-0.957c-0.706,-0.134 -1.055,-0.512 -1.055,-1.081c0,-0.673 0.561,-1.091 1.461,-1.091c0.904,0 1.404,0.347 1.404,1.02c0,0.565 -0.288,1.015 -0.985,1.152c0.147,0.347 0.308,0.67 0.479,0.966c0.347,0.608 0.729,1.113 1.103,1.499c0.557,0.571 1.095,0.885 1.472,0.885c0.083,0 0.161,-0.015 0.227,-0.048c0.769,-0.371 0.837,-1.444 0.837,-1.444c0,0 0.86,0.064 0.86,-4.488c0,-4.552 1.413,-4.464 1.413,-10.72c0,-4.549 -0.78,-5.199 -1.208,-6.733c-0.042,-0.153 -0.128,-0.497 -0.275,-0.497c-0.138,0 -0.332,0.338 -0.386,0.476c-0.954,2.44 -2.177,4.819 -2.177,4.819c-2.054,-0.487 -3.882,-0.469 -5.506,0l-2.18,-4.825c0,0 -0.129,-0.473 -0.266,-0.473c-0.147,0 -0.395,0.497 -0.395,0.497c0,0 -1.226,2.184 -1.226,6.739c0,6.256 1.449,6.057 1.449,10.612c0,4.555 0.806,4.593 0.806,4.593Zm7.53,-11.422c0,0 1.011,-0.215 1.011,0.317c0,0.535 -0.434,0.966 -0.966,0.966c-0.535,0 -0.966,-0.434 -0.966,-0.966c-0.003,-0.532 0.921,-0.317 0.921,-0.317Zm-6.071,0c0,0 1.011,-0.215 1.011,0.317c0,0.535 -0.434,0.966 -0.966,0.966c-0.535,0 -0.966,-0.434 -0.966,-0.966c-0.003,-0.532 0.921,-0.317 0.921,-0.317Z" style="fill:none;fill-rule:nonzero;stroke:#6a6e73;stroke-width:0.62px;"/><g><path d="M5.79,14.695l0,-3.149l0.56,0l0,1.303l0.625,-1.303l0.626,0l-0.74,1.4l0.84,1.749l-0.643,0l-0.708,-1.566l0,1.566l-0.56,0Z" style="fill:#6a6e73;fill-rule:nonzero;"/><path d="M7.846,14.393l0,-0.59l0.559,-0.088l0,0.512l0.63,0l0,-0.84l-0.179,0.167l-0.7,0l-0.31,-0.302l0,-1.401l0.31,-0.305l1.133,0l0.306,0.314l0,2.529l-0.301,0.306l-1.143,0l-0.305,-0.302Zm0.559,-2.366l0,1.045l0.63,0l0,-1.045l-0.63,0Z" style="fill:#6a6e73;fill-rule:nonzero;"/></g></g></svg>