<?xml version="1.0" encoding="UTF-8" standalone="no"?><!DOCTYPE svg PUBLIC "-//W3C//DTD SVG 1.1//EN" "http://www.w3.org/Graphics/SVG/1.1/DTD/svg11.dtd"><svg width="100%" height="100%" viewBox="0 0 26 26" version="1.1" xmlns="http://www.w3.org/2000/svg" xmlns:xlink="http://www.w3.org/1999/xlink" xml:space="preserve" xmlns:serif="http://www.serif.com/" style="fill-rule:evenodd;clip-rule:evenodd;stroke-linecap:round;stroke-linejoin:round;stroke-miterlimit:1.5;"><g><path d="M4.144,10.493l-3.621,12l21.111,0l-3.858,-12" style="fill:none;stroke:#6a6e73;stroke-width:0.6px;"/><path d="M5.098,11.697l-2.889,9.512l17.619,0l-2.888,-9.512" style="fill:none;stroke:#6a6e73;stroke-width:0.6px;"/><ellipse cx="10.973" cy="9.43" rx="4.482" ry="4.551" style="fill:none;stroke:#6a6e73;stroke-width:0.6px;"/><path d="M11.005,18.628c-3.336,-1.906 -5.419,-6.367 -5.541,-7.76c-0.631,-7.248 3.614,-7.84 4.93,-7.84c0.34,0 0.599,0.004 0.599,0.004c0,0 6.386,-0.886 5.461,7.836c-0.119,1.393 -2.113,5.854 -5.449,7.76" style="fill:none;stroke:#6a6e73;stroke-width:0.6px;"/><path d="M4.216,10.493l1.185,0" style="fill:none;stroke:#6a6e73;stroke-width:0.6px;"/><path d="M5.605,11.697l-0.477,0" style="fill:none;stroke:#6a6e73;stroke-width:0.6px;"/><path d="M17.703,10.493l-1.185,0" style="fill:none;stroke:#6a6e73;stroke-width:0.6px;"/><path d="M16.314,11.697l0.587,0" style="fill:none;stroke:#6a6e73;stroke-width:0.6px;"/><g><path d="M4.679,19.984l1.212,-4.725" style="fill:none;stroke:#6a6e73;stroke-width:0.6px;"/><path d="M4.998,15.845l0.893,-0.586l0.506,0.861" style="fill:none;stroke:#6a6e73;stroke-width:0.6px;"/></g><g><path d="M15.761,15.259l1.212,4.725" style="fill:none;stroke:#6a6e73;stroke-width:0.6px;"/><path d="M16.08,19.397l0.893,0.587l0.505,-0.861" style="fill:none;stroke:#6a6e73;stroke-width:0.6px;"/></g></g></svg>