<?xml version="1.0" encoding="UTF-8" standalone="no"?><!DOCTYPE svg PUBLIC "-//W3C//DTD SVG 1.1//EN" "http://www.w3.org/Graphics/SVG/1.1/DTD/svg11.dtd"><svg width="100%" height="100%" viewBox="0 0 34 34" version="1.1" xmlns="http://www.w3.org/2000/svg" xmlns:xlink="http://www.w3.org/1999/xlink" xml:space="preserve" xmlns:serif="http://www.serif.com/" style="fill-rule:evenodd;clip-rule:evenodd;stroke-linejoin:round;stroke-miterlimit:2;"><path d="M23.37,22.505l-5.514,2.669l-2.13,-4.401l5.514,-2.669l2.13,4.401Zm-1.336,-11.204l4.554,9.411l-2.757,1.334l-4.554,-9.41l2.757,-1.335Zm-2.428,14.621l7.641,-3.562l-0.178,-0.751l-8.285,3.844c-0.392,-0.127 -0.822,-0.156 -1.253,-0.052c-0.075,0.018 -0.148,0.04 -0.22,0.064l-5.689,-10.755c0.706,-0.771 0.053,-2.452 -1.331,-2.276c-0.136,0.017 -0.186,0.032 -0.282,0.041c-1.311,-0.091 -2.624,-0.524 -3.813,-1.152c-0.008,-0.138 -0.013,-0.275 -0.021,-0.413c-0.07,-1.134 -0.729,-2.133 -1.963,-2.204c-1.033,-0.059 -2.273,0.827 -2.204,1.964c0.164,2.684 0.162,3.342 0.154,5.915l-0.027,-0.001c0.016,0.342 0.032,0.909 0.05,1.251c0.026,0.533 0.213,0.96 0.493,1.282c0.003,0.003 0.003,0.009 0.006,0.012c0.332,0.509 0.305,1.05 0.57,1.594c-0.489,2.321 -2.029,4.64 -2.626,6.939c-0.438,1.687 2.166,2.401 2.604,0.717c0.601,-2.314 2.442,-4.655 2.935,-6.996c0.025,-0.119 0.034,-0.233 0.032,-0.341c1.621,1.675 2.71,4.397 2.914,6.775c0.148,1.723 2.849,1.736 2.7,0c-0.341,-3.967 -2.363,-7.816 -5.467,-10.201c-0.01,-0.2 -0.019,-0.4 -0.029,-0.599l0.01,0.001c0.005,-1.615 0.009,-1.072 -0.023,-2.686c1.117,0.428 2.293,0.7 3.473,0.79l-0.002,0.033c0.419,-0.003 0.687,-0.033 1.101,-0.086c0.076,-0.01 0.143,-0.029 0.211,-0.048l5.509,10.845c-0.664,0.546 -1.002,1.44 -0.79,2.332c0.296,1.247 1.552,2.02 2.8,1.725c1.247,-0.297 2.02,-1.553 1.724,-2.8c-0.115,-0.484 -0.376,-0.895 -0.724,-1.201Zm-1.357,2.503c-0.42,0.099 -0.844,-0.162 -0.944,-0.581c-0.1,-0.42 0.161,-0.845 0.581,-0.945c0.42,-0.1 0.844,0.162 0.944,0.581c0.1,0.421 -0.16,0.844 -0.581,0.945Zm0.566,-15.331l2.131,4.401l-5.514,2.669l-2.131,-4.401l5.514,-2.669Zm-14.645,-9.08c1.121,0 2.029,0.909 2.029,2.029c0,1.121 -0.908,2.029 -2.029,2.029c-1.12,0 -2.029,-0.908 -2.029,-2.029c0,-1.12 0.909,-2.029 2.029,-2.029Z" style="fill:#6a6e73;fill-rule:nonzero;"/></svg>