<?xml version="1.0" encoding="UTF-8" standalone="no"?><!DOCTYPE svg PUBLIC "-//W3C//DTD SVG 1.1//EN" "http://www.w3.org/Graphics/SVG/1.1/DTD/svg11.dtd"><svg width="100%" height="100%" viewBox="0 0 34 34" version="1.1" xmlns="http://www.w3.org/2000/svg" xmlns:xlink="http://www.w3.org/1999/xlink" xml:space="preserve" xmlns:serif="http://www.serif.com/" style="fill-rule:evenodd;clip-rule:evenodd;stroke-linejoin:round;stroke-miterlimit:2;"><g><path d="M13.385,8.302l0,1.756l5.238,-3.025l-5.238,-3.024l0,1.77c-3.143,0.102 -6.067,1.544 -8.068,3.992l1.952,1.595c1.52,-1.86 3.733,-2.963 6.116,-3.064Z" style="fill:#6a6e73;fill-rule:nonzero;"/><path d="M25.168,16.438c-0.103,-3.143 -1.544,-6.067 -3.992,-8.068l-1.595,1.952c1.859,1.52 2.963,3.733 3.064,6.116l-1.756,0l3.025,5.238l3.024,-5.238l-1.77,0Z" style="fill:#6a6e73;fill-rule:nonzero;"/><path d="M14.509,25.698l0,-1.756l-5.239,3.025l5.239,3.024l0,-1.77c3.143,-0.102 6.067,-1.544 8.067,-3.992l-1.951,-1.595c-1.52,1.859 -3.733,2.963 -6.116,3.064Z" style="fill:#6a6e73;fill-rule:nonzero;"/><path d="M5.249,17.562l1.755,0l-3.024,-5.239l-3.025,5.239l1.771,0c0.102,3.143 1.544,6.067 3.992,8.067l1.595,-1.951c-1.86,-1.52 -2.963,-3.733 -3.064,-6.116Z" style="fill:#6a6e73;fill-rule:nonzero;"/></g></svg>