<?xml version="1.0" encoding="UTF-8" standalone="no"?><!DOCTYPE svg PUBLIC "-//W3C//DTD SVG 1.1//EN" "http://www.w3.org/Graphics/SVG/1.1/DTD/svg11.dtd"><svg width="100%" height="100%" viewBox="0 0 34 34" version="1.1" xmlns="http://www.w3.org/2000/svg" xmlns:xlink="http://www.w3.org/1999/xlink" xml:space="preserve" xmlns:serif="http://www.serif.com/" style="fill-rule:evenodd;clip-rule:evenodd;stroke-linejoin:round;stroke-miterlimit:2;"><g><path d="M18.612,6.538c0.023,0.579 0.046,1.157 0.069,1.736l-1.126,0c0.023,-0.579 0.047,-1.157 0.07,-1.736l-2.741,0c-1.836,6.975 -3.673,13.949 -5.51,20.924l7.41,0c0.023,-0.579 0.047,-1.157 0.07,-1.736l2.529,0c0.023,0.579 0.046,1.157 0.069,1.736l7.41,0c-1.836,-6.975 -3.673,-13.949 -5.51,-20.924l-2.74,0Zm-1.161,4.335c0.445,0 0.89,0 1.335,0c0.064,1.609 0.129,3.218 0.194,4.827l-1.723,0c0.065,-1.609 0.129,-3.218 0.194,-4.827Zm-0.493,12.254c0.065,-1.609 0.13,-3.218 0.194,-4.827c0.644,0 1.288,0 1.932,0c0.065,1.609 0.129,3.218 0.194,4.827l-2.32,0Z" style="fill:none;fill-rule:nonzero;stroke:#6a6e73;stroke-width:0.9px;"/><path d="M23.149,6.538l-0.933,0c2.327,6.975 4.653,13.949 6.981,20.924l2.522,0c-2.857,-6.975 -5.713,-13.949 -8.57,-20.924Z" style="fill:#6a6e73;fill-rule:nonzero;"/><path d="M13.088,6.538c-2.857,6.975 -5.714,13.949 -8.571,20.924l2.523,0c2.327,-6.975 4.654,-13.949 6.981,-20.924l-0.933,0Z" style="fill:#6a6e73;fill-rule:nonzero;"/><path d="M4.711,6.538c-0.654,0 -1.165,0.351 -1.165,0.973c0,1.9 0.224,4.628 0.224,6.528c0,0.494 0.431,0.702 0.941,0.702c0.383,0 0.926,-0.208 0.926,-0.702c0,-1.899 0.223,-4.628 0.223,-6.528c0,-0.622 -0.526,-0.973 -1.149,-0.973Z" style="fill:#6a6e73;fill-rule:nonzero;"/><path d="M4.727,15.842c-0.702,0 -1.229,0.558 -1.229,1.229c0,0.654 0.527,1.229 1.229,1.229c0.655,0 1.213,-0.575 1.213,-1.229c0,-0.671 -0.558,-1.229 -1.213,-1.229Z" style="fill:#6a6e73;fill-rule:nonzero;"/></g></svg>