<?xml version="1.0" encoding="UTF-8" standalone="no"?><!DOCTYPE svg PUBLIC "-//W3C//DTD SVG 1.1//EN" "http://www.w3.org/Graphics/SVG/1.1/DTD/svg11.dtd"><svg width="100%" height="100%" viewBox="0 0 34 34" version="1.1" xmlns="http://www.w3.org/2000/svg" xmlns:xlink="http://www.w3.org/1999/xlink" xml:space="preserve" xmlns:serif="http://www.serif.com/" style="fill-rule:evenodd;clip-rule:evenodd;stroke-linejoin:round;stroke-miterlimit:2;"><path d="M30.562,6.149l-8.137,0l0,5.426l-10.85,0l0,-5.426l-8.137,0c-1.487,0.002 -2.711,1.227 -2.711,2.715l0,19.891c0.002,1.487 1.225,2.71 2.711,2.711l27.124,0c1.486,-0.001 2.709,-1.224 2.711,-2.711l0,-19.891c0,-1.488 -1.224,-2.713 -2.711,-2.715Zm-13.562,9.041c1.984,0 3.616,1.633 3.616,3.616c0,1.984 -1.632,3.616 -3.616,3.616c-1.984,0 -3.616,-1.632 -3.616,-3.616c0.002,-1.983 1.633,-3.614 3.616,-3.616Zm5.272,12.661l-10.544,0c-0.007,0 -0.014,0 -0.02,0c-0.489,0 -0.892,-0.403 -0.892,-0.892c0,-0.077 0.01,-0.153 0.03,-0.228c0.484,-1.485 1.878,-2.496 3.44,-2.496l0.462,0c1.438,0.602 3.06,0.602 4.498,0l0.462,0c1.561,0.001 2.954,1.012 3.44,2.496c0.02,0.074 0.029,0.151 0.029,0.228c0,0.489 -0.402,0.892 -0.891,0.892c-0.005,0 -0.009,0 -0.014,0Zm-1.656,-23.508c0,-0.001 0,-0.002 0,-0.003c0,-0.991 -0.816,-1.806 -1.806,-1.806c0,0 -3.62,0 -3.62,0c-0.001,0 -0.002,0 -0.003,0c-0.991,0 -1.806,0.815 -1.806,1.806l0,5.428l7.235,0l0,-5.425Z" style="fill:none;fill-rule:nonzero;stroke:#6a6e73;stroke-width:0.9px;"/></svg>