<?xml version="1.0" encoding="UTF-8" standalone="no"?><!DOCTYPE svg PUBLIC "-//W3C//DTD SVG 1.1//EN" "http://www.w3.org/Graphics/SVG/1.1/DTD/svg11.dtd"><svg width="100%" height="100%" viewBox="0 0 34 34" version="1.1" xmlns="http://www.w3.org/2000/svg" xmlns:xlink="http://www.w3.org/1999/xlink" xml:space="preserve" xmlns:serif="http://www.serif.com/" style="fill-rule:evenodd;clip-rule:evenodd;stroke-linejoin:round;stroke-miterlimit:2;"><path id="entrada-equipo" d="M14.959,18.102c0.912,0.254 1.766,0.68 2.517,1.256l8.201,-2.736c0.331,-0.11 0.555,-0.421 0.555,-0.769c0,-0.088 -0.014,-0.176 -0.042,-0.259l-3.049,-9.215c-0.109,-0.333 -0.421,-0.559 -0.771,-0.559c-0.09,0 -0.179,0.014 -0.263,0.043l-3.108,1.043l1.681,5.05l-3.087,1.022l-1.682,-5.055l-3.131,1.034c-0.33,0.11 -0.555,0.421 -0.555,0.769c0,0.088 0.015,0.175 0.043,0.259l2.694,8.108l-0.003,0.009Zm14.289,2.478l-0.515,-1.547c-0.11,-0.33 -0.422,-0.555 -0.77,-0.555c-0.088,0 -0.175,0.014 -0.259,0.042l-10.855,3.618c-0.898,-1.158 -2.273,-1.85 -3.738,-1.881l-5.056,-15.167c-0.221,-0.664 -0.847,-1.114 -1.546,-1.113l-5.695,0c-0.446,0.001 -0.812,0.368 -0.814,0.814l0,1.626c0.002,0.446 0.368,0.813 0.814,0.814l4.52,0l4.687,14.06c-1.406,1.088 -2.106,2.865 -1.819,4.62c0.376,2.359 2.431,4.112 4.819,4.112c2.645,0 4.833,-2.15 4.879,-4.795l10.839,-3.62c0.421,-0.142 0.652,-0.606 0.512,-1.028l-0.003,0Zm-16.231,6.998c-1.338,0 -2.44,-1.102 -2.44,-2.441c0,-1.338 1.102,-2.44 2.44,-2.44c1.339,0 2.44,1.102 2.44,2.44c-0.001,1.338 -1.102,2.439 -2.44,2.441Z" style="fill:none;fill-rule:nonzero;stroke:#6a6e73;stroke-width:0.58px;"/></svg>