<?xml version="1.0" encoding="UTF-8" standalone="no"?><!DOCTYPE svg PUBLIC "-//W3C//DTD SVG 1.1//EN" "http://www.w3.org/Graphics/SVG/1.1/DTD/svg11.dtd"><svg width="100%" height="100%" viewBox="0 0 34 34" version="1.1" xmlns="http://www.w3.org/2000/svg" xmlns:xlink="http://www.w3.org/1999/xlink" xml:space="preserve" xmlns:serif="http://www.serif.com/" style="fill-rule:evenodd;clip-rule:evenodd;stroke-linecap:square;stroke-linejoin:round;stroke-miterlimit:2;"><path id="recibos" d="M0.395,4.014l0,25.972l21.643,0l0,-25.972l-21.643,0Zm2.165,2.165l17.314,0l0,21.642l-17.314,0l0,-21.642Zm2.164,4.328l0,2.164l12.985,0l0,-2.164l-12.985,0Zm0,6.493l0,2.164l7.575,0l0,-2.164l-7.575,0Zm9.739,0l0,2.164l3.246,0l0,-2.164l-3.246,0Zm-9.739,4.329l0,2.164l7.575,0l0,-2.164l-7.575,0Zm9.739,0l0,2.164l3.246,0l0,-2.164l-3.246,0Z" style="fill:none;fill-rule:nonzero;stroke:#6a6e73;stroke-width:0.6px;"/></svg>