<?xml version="1.0" encoding="UTF-8" standalone="no"?><!DOCTYPE svg PUBLIC "-//W3C//DTD SVG 1.1//EN" "http://www.w3.org/Graphics/SVG/1.1/DTD/svg11.dtd"><svg width="100%" height="100%" viewBox="0 0 34 34" version="1.1" xmlns="http://www.w3.org/2000/svg" xmlns:xlink="http://www.w3.org/1999/xlink" xml:space="preserve" xmlns:serif="http://www.serif.com/" style="fill-rule:evenodd;clip-rule:evenodd;stroke-linejoin:round;stroke-miterlimit:2;"><g><path d="M25.159,25.09l-0.435,0l0,-8.534c0,-0.332 -0.269,-0.601 -0.601,-0.601l-15.407,0c-0.332,0 -0.601,0.269 -0.601,0.601l0,8.483l-0.808,0l0,-8.362c0,-0.331 -0.269,-0.6 -0.601,-0.6l-1.583,0c-1.297,0 -2.376,0.951 -2.576,2.192l-1.2,0c-0.331,0 -0.6,0.269 -0.6,0.601l0,8.238c0,0.332 0.269,0.6 0.6,0.6l0.828,0c0.253,0.781 0.987,1.347 1.852,1.347c0.864,0 1.598,-0.566 1.852,-1.347l2.771,0c0.253,0.781 0.987,1.347 1.852,1.347c0.743,0 1.39,-0.419 1.718,-1.032c0.328,0.613 0.975,1.032 1.719,1.032c1.074,0 1.947,-0.873 1.947,-1.947c0,-0.501 -0.19,-0.959 -0.502,-1.304l1.58,0c-0.312,0.345 -0.502,0.803 -0.502,1.304c0,1.074 0.873,1.947 1.947,1.947c0.743,0 1.391,-0.419 1.719,-1.032c0.328,0.613 0.975,1.032 1.718,1.032c1.074,0 1.948,-0.873 1.948,-1.947c0,-0.501 -0.191,-0.959 -0.503,-1.304l0.243,0c0.053,0.277 0.296,0.487 0.589,0.487l1.036,0c0.331,0 0.6,-0.269 0.6,-0.601c0,-0.331 -0.269,-0.6 -0.6,-0.6Zm-1.636,-7.934l0,5.689l-14.206,0l0,-5.689l14.206,0Zm-13.768,9.952c0,-0.412 0.335,-0.746 0.747,-0.746c0.411,0 0.746,0.334 0.746,0.746c0,0.411 -0.335,0.746 -0.746,0.746c-0.412,0 -0.747,-0.335 -0.747,-0.746Zm3.437,0c0,-0.412 0.335,-0.746 0.747,-0.746c0.411,0 0.746,0.334 0.746,0.746c0,0.411 -0.335,0.746 -0.746,0.746c-0.412,0 -0.747,-0.335 -0.747,-0.746Zm-4.433,-0.868c-0.043,0.086 -0.08,0.175 -0.11,0.267l-1.342,0l0,-0.267l1.452,0Zm-3.636,-8.962l0.983,0l0,0.991l-2.329,0c0.179,-0.573 0.714,-0.991 1.346,-0.991Zm-3.175,3.973l1.979,0l0,0.718l-1.979,0l0,-0.718Zm0,1.92l2.58,0c0.332,0 0.6,-0.269 0.6,-0.601l0,-1.92c0,-0.331 -0.268,-0.6 -0.6,-0.6l-2.58,0l0,-0.58l4.158,0l0,7.037l-0.227,0c-0.254,-0.78 -0.988,-1.346 -1.852,-1.346c-0.865,0 -1.599,0.566 -1.852,1.346l-0.227,0l0,-3.336Zm2.825,3.937c0,0.411 -0.335,0.746 -0.746,0.746c-0.412,0 -0.747,-0.335 -0.747,-0.746c0,-0.412 0.335,-0.746 0.747,-0.746c0.411,0 0.746,0.334 0.746,0.746Zm17.82,0c0,0.411 -0.335,0.746 -0.747,0.746c-0.411,0 -0.746,-0.335 -0.746,-0.746c0,-0.412 0.335,-0.746 0.746,-0.746c0.412,0 0.747,0.334 0.747,0.746Zm-4.184,0.746c-0.412,0 -0.746,-0.335 -0.746,-0.746c0,-0.412 0.334,-0.746 0.746,-0.746c0.412,0 0.746,0.334 0.746,0.746c0,0.411 -0.334,0.746 -0.746,0.746Zm1.445,-2.05l0.547,0c-0.106,0.117 -0.198,0.248 -0.273,0.389c-0.076,-0.141 -0.168,-0.272 -0.274,-0.389Zm-10.537,-1.201l0,-0.557l14.206,0l0,0.557l-14.206,0Z" style="fill:#6a6e73;fill-rule:nonzero;"/><path d="M24.08,9.098l-0.201,0l0,-0.938c0,-1.735 -1.376,-3.184 -3.097,-3.215c-0.047,0 -0.141,0 -0.188,0c-1.721,0.031 -3.097,1.48 -3.097,3.215l0,0.938l-0.201,0c-0.309,0 -0.56,0.319 -0.56,0.713l0,4.704c0,0.393 0.251,0.715 0.56,0.715l6.784,0c0.309,0 0.561,-0.322 0.561,-0.715l0,-4.704c0,-0.394 -0.252,-0.713 -0.561,-0.713Zm-2.756,3.06l0,1.421c0,0.163 -0.137,0.301 -0.3,0.301l-0.672,0c-0.163,0 -0.299,-0.138 -0.299,-0.301l0,-1.421c-0.158,-0.156 -0.25,-0.371 -0.25,-0.609c0,-0.45 0.348,-0.838 0.791,-0.856c0.047,-0.002 0.141,-0.002 0.188,0c0.443,0.018 0.792,0.406 0.792,0.856c0,0.238 -0.092,0.453 -0.25,0.609Zm1.235,-3.06l-1.777,0l-0.188,0l-1.776,0l0,-0.938c0,-1.033 0.839,-1.888 1.87,-1.888c1.031,0 1.871,0.855 1.871,1.888l0,0.938l0,0Z" style="fill:#6a6e73;fill-rule:nonzero;"/></g></svg>