<?xml version="1.0" encoding="UTF-8" standalone="no"?><!DOCTYPE svg PUBLIC "-//W3C//DTD SVG 1.1//EN" "http://www.w3.org/Graphics/SVG/1.1/DTD/svg11.dtd"><svg width="100%" height="100%" viewBox="0 0 34 34" version="1.1" xmlns="http://www.w3.org/2000/svg" xmlns:xlink="http://www.w3.org/1999/xlink" xml:space="preserve" xmlns:serif="http://www.serif.com/" style="fill-rule:evenodd;clip-rule:evenodd;stroke-linejoin:round;stroke-miterlimit:2;"><path id="sin-gafete" d="M8.179,4.004c-0.582,0.018 -1.051,0.502 -1.051,1.085c0,0.015 0,0.03 0,0.046l0,2.257l-4.483,0c-1.259,0.005 -2.294,1.039 -2.3,2.298l0,18.005c0.005,1.26 1.04,2.296 2.3,2.301l13.486,0c1.259,-0.006 2.294,-1.041 2.299,-2.301l0,-18.003c-0.004,-1.26 -1.039,-2.295 -2.299,-2.3l-4.48,0l0,-2.257c0.001,-0.016 0.001,-0.031 0.001,-0.046c0,-0.583 -0.469,-1.067 -1.051,-1.085l-2.422,0Zm0.082,1.131l2.26,0l0,4.521l-2.26,0l0,-4.521Zm-5.616,3.391l4.483,0l0,1.135c0,0.015 0,0.031 0,0.046c0,0.583 0.469,1.067 1.051,1.085l2.424,0c0.582,-0.018 1.051,-0.502 1.051,-1.085c0,-0.015 0,-0.031 -0.001,-0.046l0,-1.135l4.48,0c0.003,0 0.006,-0.001 0.009,-0.001c0.636,0 1.159,0.524 1.159,1.16c0,0.003 0,0.007 0,0.011l0,17.999c0,0.003 0,0.006 0,0.009c0,0.637 -0.524,1.161 -1.161,1.161c-0.003,0 -0.006,0 -0.009,0l-13.486,0c-0.003,0 -0.006,0 -0.009,0c-0.637,0 -1.161,-0.524 -1.161,-1.161c0,-0.003 0,-0.006 0,-0.009l0,-18.005c0,-0.001 0,-0.002 0,-0.003c0,-0.637 0.524,-1.162 1.161,-1.162c0.003,0 0.006,0.001 0.009,0.001Zm5.05,3.962c-0.347,-0.004 -0.689,0.074 -0.999,0.23c-0.311,0.14 -0.553,0.401 -0.669,0.723l-0.593,1.781l0,0.093l-0.568,0l0,1.13l0.566,0l0,3.015c0,0.207 0.127,0.377 0.282,0.377l1.131,0c0.155,0 0.282,-0.17 0.282,-0.377l0,-0.377l4.521,0l0,0.377c0,0.207 0.126,0.377 0.282,0.377l1.13,0c0.156,0 0.282,-0.17 0.282,-0.377l0,-3.019l0.566,0l0,-1.13l-0.56,0l0,-0.094l-0.593,-1.781c-0.117,-0.322 -0.358,-0.583 -0.669,-0.724c-0.31,-0.155 -0.652,-0.234 -0.999,-0.23l-3.392,0.006Zm0,1.13l3.392,0c0.166,-0.002 0.33,0.033 0.479,0.103c0.102,0.053 0.125,0.107 0.116,0.078l0.505,1.516l-5.592,0l0.505,-1.516c-0.009,0.029 0.014,-0.025 0.115,-0.078c0.15,-0.071 0.314,-0.108 0.48,-0.106l0,0.003Zm-0.567,2.827c0.311,0 0.567,0.255 0.567,0.566c0,0.31 -0.256,0.566 -0.567,0.566c-0.31,0 -0.566,-0.256 -0.566,-0.566c0,-0.001 0,-0.003 0,-0.004c0,-0.31 0.256,-0.566 0.566,-0.566l0,0.004Zm4.522,0c0.31,0 0.566,0.255 0.566,0.566c0,0.31 -0.256,0.566 -0.566,0.566c-0.311,0 -0.566,-0.256 -0.566,-0.566c0,-0.001 0,-0.003 0,-0.004c0,-0.31 0.255,-0.566 0.566,-0.566c0,0 0.001,0 0.001,0l-0.001,0.004Zm-7.348,5.644c-0.011,-0.001 -0.021,-0.001 -0.032,-0.001c-0.311,0 -0.566,0.256 -0.566,0.566c0,0.311 0.255,0.566 0.566,0.566c0.011,0 0.021,0 0.032,-0.001l10.176,0c0.011,0.001 0.021,0.001 0.032,0.001c0.311,0 0.566,-0.255 0.566,-0.566c0,-0.31 -0.255,-0.566 -0.566,-0.566c-0.011,0 -0.021,0 -0.032,0.001l-10.176,0Zm0,2.261c-0.011,-0.001 -0.021,-0.001 -0.032,-0.001c-0.311,0 -0.566,0.255 -0.566,0.566c0,0.31 0.255,0.566 0.566,0.566c0.011,0 0.021,0 0.032,-0.001l10.176,0c0.011,0.001 0.021,0.001 0.032,0.001c0.311,0 0.566,-0.256 0.566,-0.566c0,-0.311 -0.255,-0.566 -0.566,-0.566c-0.011,0 -0.021,0 -0.032,0.001l-10.176,0Z" style="fill:none;fill-rule:nonzero;stroke:#6a6e73;stroke-width:0.53px;"/></svg>