<?xml version="1.0" encoding="UTF-8" standalone="no"?><!DOCTYPE svg PUBLIC "-//W3C//DTD SVG 1.1//EN" "http://www.w3.org/Graphics/SVG/1.1/DTD/svg11.dtd"><svg width="100%" height="100%" viewBox="0 0 34 34" version="1.1" xmlns="http://www.w3.org/2000/svg" xmlns:xlink="http://www.w3.org/1999/xlink" xml:space="preserve" xmlns:serif="http://www.serif.com/" style="fill-rule:evenodd;clip-rule:evenodd;stroke-linejoin:round;stroke-miterlimit:2;"><path d="M26.867,14.904l-0.942,0l-1.404,0.739c-0.158,-0.087 -0.322,-0.161 -0.5,-0.206l-1.766,-0.442l0,-0.2c0.782,-0.546 1.258,-1.447 1.258,-2.406l0,-0.733c0,-1.628 -1.276,-2.991 -2.844,-3.039c-0.08,-0.002 -0.158,0.001 -0.237,0.005l0.458,-1.072l-2.22,-2.219l-1.308,0.852c-0.497,-0.28 -1.023,-0.498 -1.569,-0.651l-0.323,-1.527l-3.195,0l-0.323,1.527c-0.546,0.153 -1.073,0.371 -1.569,0.651l-1.309,-0.851l-2.218,2.217l0.45,1.073c-0.017,-0.001 -0.033,-0.004 -0.05,-0.004c-0.803,-0.023 -1.559,0.269 -2.134,0.827c-0.575,0.557 -0.891,1.305 -0.891,2.106l0,0.838c0,0.959 0.476,1.86 1.257,2.405l0,0.201l-1.152,0.288l-2.088,-1.217l-1.371,0l0,8.686l4.124,1.374l0.803,0l0.101,-0.351l1.264,0.759c0.02,0.687 0.572,1.24 1.258,1.264c0.024,0.684 0.574,1.234 1.258,1.258c0.024,0.684 0.574,1.233 1.257,1.257c0.025,0.7 0.599,1.263 1.304,1.263c0.262,0 0.519,-0.082 0.735,-0.228l0.371,0.328c0.233,0.205 0.533,0.319 0.844,0.319l0.077,0c0.698,0 1.265,-0.564 1.274,-1.259c0.69,-0.009 1.249,-0.568 1.258,-1.258c0.69,-0.009 1.249,-0.568 1.257,-1.259c0.697,-0.016 1.259,-0.585 1.259,-1.286c0,-0.042 -0.002,-0.084 -0.006,-0.126l7.552,-3.775l0,-6.128Zm-4.192,-3.248l0,0.733c0,0.744 -0.402,1.439 -1.049,1.814l-0.21,0.121l0.002,1.327l2.094,0.523l-4.61,2.426l0,-1.129c0,-0.564 -0.227,-1.08 -0.6,-1.461l1.439,-0.359l0,-1.328l-0.21,-0.121c-0.646,-0.374 -1.048,-1.069 -1.048,-1.813l0,-0.838c0,-0.572 0.226,-1.107 0.637,-1.505c0.41,-0.398 0.955,-0.612 1.524,-0.59c1.12,0.033 2.031,1.021 2.031,2.2Zm-8.171,6.614l-1.898,-0.606c-0.864,-0.277 -1.8,-0.318 -2.686,-0.122l-0.24,0.053l0,-0.124c0,-0.578 0.392,-1.08 0.953,-1.221l2.401,-0.599l0,-1.328l-0.21,-0.121c-0.646,-0.374 -1.048,-1.069 -1.048,-1.813l0,-0.838c0,-0.572 0.226,-1.107 0.637,-1.505c0.41,-0.398 0.958,-0.612 1.524,-0.59c1.12,0.033 2.031,1.021 2.031,2.2l0,0.733c0,0.744 -0.402,1.439 -1.049,1.814l-0.21,0.121l0.002,1.327l2.401,0.599c0.56,0.141 0.952,0.643 0.952,1.221l0,1.57l-0.104,0.055l-0.257,0l-2.577,-0.737c-0.203,-0.057 -0.412,-0.081 -0.622,-0.089Zm-4.73,-7.991c0.787,-1.525 2.372,-2.501 4.098,-2.501c1.71,0 3.288,0.963 4.081,2.467c-0.2,0.4 -0.308,0.844 -0.308,1.306l0,0.838c0,0.959 0.476,1.86 1.257,2.405l0,0.201l-1.676,0.42l-1.678,-0.42l0,-0.2c0.782,-0.546 1.258,-1.447 1.258,-2.406l0,-0.733c0,-1.628 -1.276,-2.991 -2.844,-3.039c-0.802,-0.023 -1.559,0.27 -2.133,0.828c-0.575,0.557 -0.891,1.305 -0.891,2.106l0,0.838c0,0.959 0.476,1.86 1.257,2.405l0,0.201l-1.676,0.42l-1.678,-0.42l0,-0.2c0.782,-0.546 1.258,-1.447 1.258,-2.406l0,-0.733c0,-0.493 -0.118,-0.961 -0.325,-1.377Zm-1.928,-2.535l1.339,-1.339l1.179,0.767l0.226,-0.139c0.565,-0.346 1.176,-0.599 1.815,-0.752l0.258,-0.062l0.291,-1.375l1.836,0l0.291,1.374l0.258,0.062c0.639,0.153 1.25,0.407 1.815,0.753l0.225,0.138l1.179,-0.767l1.338,1.338l-0.476,1.114c-0.323,0.139 -0.623,0.335 -0.884,0.588c-0.018,0.017 -0.032,0.035 -0.049,0.052c-0.988,-1.57 -2.734,-2.556 -4.615,-2.556c-1.895,0 -3.646,0.995 -4.631,2.581c-0.263,-0.276 -0.577,-0.499 -0.924,-0.656l-0.471,-1.121Zm-1.519,7.907l0,-1.328l-0.21,-0.121c-0.646,-0.374 -1.048,-1.069 -1.048,-1.813l0,-0.838c0,-0.572 0.226,-1.107 0.637,-1.505c0.41,-0.398 0.956,-0.612 1.524,-0.59c1.12,0.033 2.031,1.021 2.031,2.2l0,0.733c0,0.744 -0.402,1.439 -1.049,1.814l-0.21,0.121l0.002,1.327l1.438,0.359c-0.373,0.381 -0.6,0.897 -0.6,1.461l0,0.31l-1.308,0.291l0.034,-0.119l0.016,-0.775l-2.211,-1.289l0.954,-0.238Zm-4.611,-0.747l0.305,0l3.015,1.758l-1.521,6.085l-1.799,-0.6l0,-7.243Zm3.421,8.384l-0.825,-0.275l1.478,-5.911l0.956,0.558l0,0.12l-1.574,5.508l-0.035,0Zm2.866,1.207c0,-0.124 0.05,-0.245 0.138,-0.333l0.737,-0.737c0.087,-0.087 0.209,-0.137 0.332,-0.137c0.259,0 0.47,0.211 0.47,0.47c0,0.123 -0.05,0.245 -0.137,0.332l-0.737,0.737c-0.088,0.088 -0.209,0.138 -0.333,0.138c-0.259,0 -0.47,-0.211 -0.47,-0.47Zm1.258,1.257c0,-0.123 0.05,-0.245 0.138,-0.332l0.736,-0.737c0.088,-0.088 0.209,-0.138 0.333,-0.138c0.259,0 0.47,0.211 0.47,0.47c0,0.124 -0.05,0.245 -0.138,0.333l-0.737,0.737c-0.087,0.087 -0.208,0.137 -0.332,0.137c-0.259,0 -0.47,-0.211 -0.47,-0.47Zm1.258,1.258c0,-0.124 0.049,-0.245 0.137,-0.333l0.737,-0.737c0.088,-0.087 0.209,-0.137 0.332,-0.137c0.259,0 0.47,0.211 0.47,0.47c0,0.124 -0.05,0.245 -0.137,0.332l-0.737,0.737c-0.088,0.088 -0.209,0.138 -0.333,0.138c-0.259,0 -0.469,-0.211 -0.469,-0.47Zm1.727,1.727c-0.259,0 -0.47,-0.211 -0.47,-0.47c0,-0.123 0.05,-0.244 0.138,-0.332l0.737,-0.737c0.087,-0.088 0.208,-0.138 0.332,-0.138c0.259,0 0.47,0.211 0.47,0.47c0,0.124 -0.05,0.245 -0.138,0.333l-0.737,0.737c-0.087,0.087 -0.208,0.137 -0.332,0.137Zm2.027,0.419l-0.077,0c-0.107,0 -0.21,-0.038 -0.289,-0.109l-0.314,-0.277l0.315,-0.314c0.112,-0.113 0.2,-0.246 0.264,-0.39l0.381,0.317c0.1,0.083 0.157,0.206 0.157,0.336c0,0.241 -0.196,0.437 -0.437,0.437Zm3.759,-3.772l-0.072,0c-0.105,0 -0.208,-0.038 -0.288,-0.105l-2.274,-1.894l-0.537,0.644l2.208,1.839c0.099,0.083 0.157,0.206 0.157,0.336c0,0.241 -0.197,0.437 -0.438,0.437l-0.091,0c-0.102,0 -0.201,-0.036 -0.28,-0.101l-2.277,-1.897l-0.537,0.644l2.208,1.839c0.099,0.083 0.157,0.205 0.157,0.336c0,0.241 -0.196,0.437 -0.437,0.437c-0.161,0 -0.318,-0.057 -0.441,-0.16l-0.936,-0.78c-0.206,-0.421 -0.63,-0.715 -1.125,-0.732c-0.025,-0.684 -0.574,-1.234 -1.258,-1.258c-0.024,-0.684 -0.574,-1.233 -1.258,-1.257c-0.024,-0.7 -0.597,-1.263 -1.303,-1.263c-0.344,0 -0.681,0.14 -0.925,0.384l-0.737,0.736c-0.044,0.044 -0.08,0.094 -0.117,0.144l-1.288,-0.773l1.129,-3.95l2.83,-0.63c0.742,-0.166 1.525,-0.13 2.249,0.102l0.617,0.198l-2.093,1.046c-0.478,0.24 -0.776,0.721 -0.776,1.256l0,0.083c0,0.774 0.63,1.404 1.405,1.404c0.254,0 0.504,-0.069 0.722,-0.2l1.561,-0.936c0.313,-0.188 0.734,-0.147 1.005,0.097l3.542,3.187c0.095,0.086 0.149,0.208 0.149,0.336c0,0.249 -0.202,0.451 -0.451,0.451Zm7.996,-4.87l-7.062,3.531c-0.023,-0.024 -0.047,-0.048 -0.072,-0.07l-3.541,-3.188c-0.31,-0.28 -0.711,-0.434 -1.129,-0.434c-0.306,0 -0.606,0.084 -0.869,0.241l-1.561,0.937c-0.088,0.052 -0.188,0.08 -0.29,0.08c-0.313,0 -0.566,-0.254 -0.566,-0.566l0,-0.083c0,-0.216 0.12,-0.409 0.312,-0.506l2.339,-1.169c0.4,-0.2 0.875,-0.245 1.306,-0.121l2.634,0.752l0.638,0.016l7.861,-4.137l0,4.717Z" style="fill:#6a6e73;fill-rule:nonzero;"/></svg>