<?xml version="1.0" encoding="UTF-8" standalone="no"?><!DOCTYPE svg PUBLIC "-//W3C//DTD SVG 1.1//EN" "http://www.w3.org/Graphics/SVG/1.1/DTD/svg11.dtd"><svg width="100%" height="100%" viewBox="0 0 34 34" version="1.1" xmlns="http://www.w3.org/2000/svg" xmlns:xlink="http://www.w3.org/1999/xlink" xml:space="preserve" xmlns:serif="http://www.serif.com/" style="fill-rule:evenodd;clip-rule:evenodd;stroke-linejoin:round;stroke-miterlimit:2;"><g><path d="M17.115,4.012c-2.912,0.402 -5.279,2.601 -5.906,5.493c-0.122,0.581 -0.152,1.803 -0.056,2.418c0.408,2.643 2.22,4.776 4.756,5.596c2.413,0.779 5.071,0.163 6.904,-1.599c1.064,-1.023 1.766,-2.306 2.051,-3.752c0.118,-0.611 0.118,-1.915 0,-2.525c-0.417,-2.098 -1.766,-3.926 -3.614,-4.878c-1.054,-0.545 -1.859,-0.754 -3.014,-0.784c-0.418,-0.01 -0.922,0 -1.121,0.031Zm2.215,0.957c1.171,0.265 2.266,0.886 3.096,1.756c2.23,2.347 2.23,6.013 -0.005,8.365c-2.47,2.602 -6.624,2.505 -8.992,-0.214c-1.695,-1.94 -1.965,-4.811 -0.656,-7.026c0.295,-0.504 0.494,-0.753 0.972,-1.237c0.881,-0.896 2.067,-1.507 3.345,-1.716c0.57,-0.097 1.66,-0.061 2.24,0.072Z" style="fill:#6a6e73;fill-rule:nonzero;"/><path d="M17.762,7.545c-0.097,0.081 -0.163,0.183 -0.163,0.255c0,0.086 -0.051,0.132 -0.239,0.203c-0.158,0.061 -0.356,0.209 -0.56,0.407c-0.26,0.265 -0.326,0.367 -0.418,0.657c-0.132,0.433 -0.132,0.642 -0.005,1.064c0.204,0.662 0.79,1.12 1.533,1.202c0.443,0.051 0.657,0.142 0.814,0.371c0.153,0.214 0.194,0.672 0.077,0.896c-0.188,0.362 -0.667,0.55 -1.059,0.423c-0.316,-0.102 -0.601,-0.509 -0.601,-0.845c0,-0.194 -0.188,-0.382 -0.382,-0.382c-0.244,0 -0.326,0.041 -0.412,0.219c-0.26,0.499 0.331,1.527 1.023,1.792c0.178,0.071 0.229,0.117 0.229,0.204c0,0.147 0.27,0.382 0.443,0.382c0.148,0 0.423,-0.255 0.423,-0.393c0,-0.066 0.091,-0.137 0.305,-0.239c0.606,-0.29 0.967,-0.87 0.967,-1.558c0,-0.936 -0.646,-1.614 -1.644,-1.726c-0.428,-0.051 -0.535,-0.091 -0.718,-0.31c-0.53,-0.631 0,-1.543 0.82,-1.41c0.371,0.061 0.621,0.366 0.702,0.865c0.041,0.265 0.183,0.392 0.423,0.392c0.285,0 0.417,-0.158 0.417,-0.499c0,-0.595 -0.422,-1.222 -1.002,-1.486c-0.179,-0.077 -0.27,-0.153 -0.27,-0.209c0,-0.138 -0.214,-0.346 -0.387,-0.382c-0.122,-0.02 -0.188,0 -0.316,0.107Z" style="fill:#6a6e73;fill-rule:nonzero;"/><path d="M0.793,18.003c-0.158,0.157 -0.184,0.3 -0.087,0.478c0.122,0.234 0.147,0.234 1.634,0.239c1.441,0 1.558,0.015 1.701,0.199c0.051,0.061 0.061,1.217 0.066,5.005c0,2.703 -0.015,4.959 -0.031,5.004c-0.081,0.204 -0.259,0.23 -1.736,0.23c-1.487,0.005 -1.512,0.005 -1.634,0.239c-0.097,0.178 -0.071,0.321 0.087,0.478l0.147,0.148l1.472,0c1.619,0 1.766,-0.02 2.113,-0.305c0.101,-0.087 0.244,-0.27 0.315,-0.418l0.133,-0.265l0,-10.193l-0.133,-0.264c-0.071,-0.143 -0.219,-0.331 -0.326,-0.418c-0.366,-0.29 -0.478,-0.305 -2.097,-0.305l-1.477,0l-0.147,0.148Z" style="fill:#6a6e73;fill-rule:nonzero;"/><path d="M6.108,19.637c-0.148,0.061 -0.28,0.321 -0.239,0.478c0.015,0.066 0.081,0.168 0.142,0.229c0.107,0.102 0.173,0.102 2.047,0.118l1.94,0.015l0.428,0.219c0.234,0.117 0.911,0.57 1.496,1.003c0.677,0.499 1.263,0.886 1.594,1.054l0.529,0.269l1.736,0.031c1.09,0.02 1.808,0.051 1.925,0.092c0.102,0.03 0.285,0.127 0.407,0.208c0.275,0.184 0.468,0.194 0.631,0.026c0.158,-0.153 0.168,-0.418 0.031,-0.596c-0.163,-0.203 -0.687,-0.453 -1.115,-0.529c-0.27,-0.046 -0.85,-0.067 -1.874,-0.072l-1.487,0l-0.397,-0.203c-0.224,-0.112 -0.621,-0.362 -0.886,-0.555c-1.328,-0.978 -1.787,-1.293 -2.143,-1.482c-0.662,-0.346 -0.754,-0.356 -2.821,-0.351c-1.007,0 -1.883,0.02 -1.944,0.046Z" style="fill:#6a6e73;fill-rule:nonzero;"/><path d="M24.61,21.368c-0.224,0.056 -0.316,0.102 -3.396,1.604c-1.247,0.605 -2.393,1.145 -2.546,1.196c-0.417,0.142 -1.145,0.204 -2.337,0.204c-1.201,0 -1.924,-0.051 -3.365,-0.235c-0.545,-0.071 -1.146,-0.142 -1.329,-0.157c-0.321,-0.026 -0.341,-0.021 -0.443,0.111c-0.142,0.184 -0.142,0.393 0.005,0.561c0.097,0.117 0.189,0.147 0.723,0.229c1.808,0.274 2.526,0.331 4.354,0.331c1.863,0 2.235,-0.036 2.846,-0.281c0.137,-0.051 1.456,-0.682 2.937,-1.405c2.317,-1.13 2.724,-1.314 2.928,-1.314c0.733,0 1.125,0.907 0.616,1.441c-0.137,0.148 -5.814,3.691 -6.298,3.936c-0.942,0.478 -3.065,0.799 -4.368,0.662c-0.917,-0.097 -2.037,-0.403 -3.295,-0.902c-0.626,-0.249 -1.812,-0.794 -2.265,-1.038c-0.693,-0.377 -1.411,-0.55 -2.51,-0.601c-0.667,-0.031 -0.733,-0.026 -0.83,0.066c-0.163,0.148 -0.214,0.321 -0.143,0.489c0.092,0.219 0.285,0.295 0.743,0.295c0.459,0 1.238,0.112 1.645,0.229c0.153,0.046 0.591,0.24 0.967,0.433c2.256,1.136 4.425,1.839 5.922,1.92c1.415,0.077 3.294,-0.229 4.434,-0.723c0.285,-0.122 6.39,-3.925 6.568,-4.088c0.703,-0.657 0.703,-1.858 -0.01,-2.51c-0.418,-0.387 -1.064,-0.575 -1.553,-0.453Z" style="fill:#6a6e73;fill-rule:nonzero;"/><path d="M1.796,26.668c-0.27,0.214 -0.352,0.529 -0.209,0.81c0.183,0.361 0.611,0.468 0.947,0.239c0.525,-0.352 0.26,-1.156 -0.387,-1.156c-0.143,0 -0.26,0.036 -0.351,0.107Z" style="fill:#6a6e73;fill-rule:nonzero;"/></g></svg>