<?xml version="1.0" encoding="UTF-8" standalone="no"?><!DOCTYPE svg PUBLIC "-//W3C//DTD SVG 1.1//EN" "http://www.w3.org/Graphics/SVG/1.1/DTD/svg11.dtd"><svg width="100%" height="100%" viewBox="0 0 34 34" version="1.1" xmlns="http://www.w3.org/2000/svg" xmlns:xlink="http://www.w3.org/1999/xlink" xml:space="preserve" xmlns:serif="http://www.serif.com/" style="fill-rule:evenodd;clip-rule:evenodd;stroke-linejoin:round;stroke-miterlimit:2;"><g><path d="M21.349,11.789l0,1.771l1.635,-1.791l0,-0.356c0,-2.229 -1.905,-4.035 -4.257,-4.035l-0.011,0l0,1.649c1.479,0.145 2.633,1.325 2.633,2.762Z" style="fill:#6a6e73;fill-rule:nonzero;"/><path d="M21.349,24.105c0,1.533 -1.316,2.776 -2.937,2.776l-13.045,0c-1.624,0 -2.938,-1.243 -2.938,-2.776l0,-12.316c0,-1.437 1.155,-2.617 2.636,-2.759l0,-1.646c-2.332,0.019 -4.217,1.82 -4.217,4.035l0,13.065c0,2.229 1.905,4.035 4.257,4.035l13.622,0c2.352,0 4.257,-1.806 4.257,-4.035l0,-4.508l-1.635,1.792l0,2.337Z" style="fill:#6a6e73;fill-rule:nonzero;"/><path d="M7.699,11.069c0.64,0 1.16,-0.52 1.16,-1.16c0,-0.336 -0.142,-0.637 -0.37,-0.848l0,-2.789c0,-0.438 -0.355,-0.791 -0.79,-0.791c-0.438,0 -0.791,0.353 -0.791,0.791l0,2.789c-0.227,0.211 -0.37,0.512 -0.37,0.848c0.003,0.64 0.521,1.16 1.161,1.16Z" style="fill:#6a6e73;fill-rule:nonzero;"/><path d="M11.916,11.069c0.64,0 1.16,-0.52 1.16,-1.16c0,-0.336 -0.142,-0.637 -0.369,-0.848l0,-2.789c0,-0.438 -0.353,-0.791 -0.791,-0.791c-0.438,0 -0.79,0.353 -0.79,0.791l0,2.789c-0.228,0.211 -0.37,0.512 -0.37,0.848c0,0.64 0.52,1.16 1.16,1.16Z" style="fill:#6a6e73;fill-rule:nonzero;"/><path d="M16.134,11.069c0.64,0 1.16,-0.52 1.16,-1.16c0,-0.336 -0.142,-0.637 -0.37,-0.848l0,-2.789c0,-0.438 -0.352,-0.791 -0.79,-0.791c-0.438,0 -0.791,0.353 -0.791,0.791l0,2.789c-0.227,0.211 -0.37,0.512 -0.37,0.848c0,0.64 0.518,1.16 1.161,1.16Z" style="fill:#6a6e73;fill-rule:nonzero;"/><path d="M16.054,21.611c-0.253,0.339 -0.552,0.64 -0.887,0.896l4.123,0c0.236,0 0.427,-0.202 0.427,-0.449c0,-0.248 -0.191,-0.45 -0.427,-0.45l-3.236,0l0,0.003Z" style="fill:#6a6e73;fill-rule:nonzero;"/><path d="M19.29,15.653l-3.867,0c0.298,0.262 0.557,0.564 0.776,0.896l3.088,0c0.237,0 0.427,-0.202 0.427,-0.449c0.003,-0.245 -0.188,-0.447 -0.424,-0.447Z" style="fill:#6a6e73;fill-rule:nonzero;"/><path d="M4.491,21.611c-0.236,0 -0.427,0.202 -0.427,0.45c0,0.247 0.191,0.449 0.427,0.449l5.335,0c-0.336,-0.256 -0.637,-0.557 -0.887,-0.896l-4.448,0l0,-0.003Z" style="fill:#6a6e73;fill-rule:nonzero;"/><path d="M4.064,16.103c0,0.247 0.191,0.449 0.427,0.449l4.303,0c0.219,-0.333 0.48,-0.634 0.776,-0.896l-5.079,0c-0.236,-0.003 -0.427,0.199 -0.427,0.447Z" style="fill:#6a6e73;fill-rule:nonzero;"/><path d="M12.496,22.558c1.98,0 3.584,-1.604 3.584,-3.583c0,-1.979 -1.604,-3.583 -3.584,-3.583c-1.979,0 -3.583,1.604 -3.583,3.583c0,1.979 1.604,3.583 3.583,3.583Zm-1.697,-3.981l1.396,1.243l2.079,-2.346c0.222,-0.248 0.6,-0.271 0.847,-0.052c0.248,0.219 0.268,0.6 0.049,0.848l-2.455,2.77c-0.005,0.008 -0.011,0.02 -0.02,0.028c-0.219,0.248 -0.6,0.27 -0.847,0.051l-1.843,-1.641c-0.247,-0.221 -0.27,-0.6 -0.051,-0.85c0.216,-0.247 0.594,-0.27 0.845,-0.051Z" style="fill:#6a6e73;fill-rule:nonzero;"/><path d="M19.27,17.2l-1.191,3.908l3.805,-1.536l-2.614,-2.372Z" style="fill:#6a6e73;fill-rule:nonzero;"/><path d="M25.945,9.843c-0.828,0.91 -0.751,0.828 -0.751,0.828l2.617,2.372c0.008,-0.012 0.099,-0.108 0.75,-0.828c0.816,-0.896 -1.789,-3.282 -2.616,-2.372Z" style="fill:#6a6e73;fill-rule:nonzero;"/><path d="M22.328,19.089l-2.617,-2.372l5.04,-5.554l2.616,2.372l-5.039,5.554Z" style="fill:#6a6e73;fill-rule:nonzero;"/></g></svg>