<?xml version="1.0" encoding="UTF-8" standalone="no"?><!DOCTYPE svg PUBLIC "-//W3C//DTD SVG 1.1//EN" "http://www.w3.org/Graphics/SVG/1.1/DTD/svg11.dtd"><svg width="100%" height="100%" viewBox="0 0 34 34" version="1.1" xmlns="http://www.w3.org/2000/svg" xmlns:xlink="http://www.w3.org/1999/xlink" xml:space="preserve" xmlns:serif="http://www.serif.com/" style="fill-rule:evenodd;clip-rule:evenodd;stroke-linejoin:round;stroke-miterlimit:2;"><g><path d="M23.696,29.076c0,-1.042 -1.199,-2.448 -2.819,-2.858c0.676,-0.456 1.142,-1.354 1.142,-2.163c0,-1.141 -0.925,-2.067 -2.065,-2.067c-1.143,0 -2.067,0.926 -2.067,2.067c0,0.809 0.468,1.707 1.143,2.163c-1.619,0.41 -2.819,1.816 -2.819,2.858c-0.001,1.231 7.485,1.231 7.485,0Z" style="fill:#6a6e73;fill-rule:nonzero;"/><path d="M6.258,8.679c0.923,0 1.675,-1.075 1.675,-1.999c0,-0.927 -0.752,-1.675 -1.675,-1.675c-0.925,0 -1.676,0.748 -1.676,1.675c0,0.924 0.751,1.999 1.676,1.999Z" style="fill:#6a6e73;fill-rule:nonzero;"/><path d="M23.822,13.604l0,-7.091c0,-0.652 -0.53,-1.182 -1.182,-1.182l-4.58,0l0,-0.887c0,-0.245 -0.199,-0.443 -0.444,-0.443c-0.245,0 -0.444,0.199 -0.444,0.443l0,0.887l-4.579,0c-0.651,0 -1.181,0.53 -1.181,1.182l0,3.631l-2.295,-0.766c-0.144,-0.05 -1.43,-0.499 -2.614,-0.558l-0.159,0.316l-0.003,0l0.446,3.475l-0.53,0.927l-0.53,-0.927l0.446,-3.475l-0.004,0l-0.158,-0.316c-1.229,0.061 -2.569,0.543 -2.629,0.564c-0.025,0.009 -0.04,0.028 -0.063,0.038c-0.04,0.021 -0.076,0.041 -0.111,0.068c-0.035,0.026 -0.063,0.054 -0.091,0.085c-0.028,0.033 -0.052,0.064 -0.072,0.101c-0.024,0.039 -0.041,0.077 -0.056,0.122c-0.007,0.023 -0.023,0.04 -0.029,0.064l-1.059,4.77c-0.079,0.357 0.145,0.711 0.503,0.791c0.048,0.009 0.095,0.013 0.144,0.013c0.304,0 0.578,-0.208 0.645,-0.517l0.979,-4.401c0.068,-0.022 0.145,-0.045 0.231,-0.069l0,4.524l-0.528,6.556c-0.021,0.254 0.089,0.481 0.263,0.64c-0.719,0.324 -1.223,1.042 -1.223,1.883c0,0.809 0.466,1.707 1.142,2.163c-1.619,0.41 -2.819,1.816 -2.819,2.858c0,1.231 7.486,1.231 7.486,0c0,-1.042 -1.2,-2.448 -2.819,-2.858c0.677,-0.456 1.143,-1.354 1.143,-2.163c0,-1.024 -0.746,-1.869 -1.724,-2.033c0.071,-0.108 0.125,-0.227 0.136,-0.364l0.476,-5.926c0.099,0.043 0.207,0.068 0.323,0.068c0.113,0 0.221,-0.025 0.32,-0.068l0.477,5.926c0.035,0.417 0.382,0.731 0.792,0.731c0.02,0 0.043,-0.001 0.064,-0.002c0.437,-0.035 0.764,-0.418 0.729,-0.856l-0.527,-6.555l0,-4.523c0.336,0.095 0.563,0.177 0.569,0.18c0.004,0.001 0.007,0.001 0.009,0.002c0.004,0.001 0.005,0.001 0.007,0.002l2.715,0.905l0,2.065c0,0.652 0.53,1.182 1.182,1.182l2.151,0l-1.888,7.044c-0.017,0.067 -0.015,0.133 -0.003,0.195c-0.126,-0.023 -0.255,-0.038 -0.387,-0.038c-1.142,0 -2.067,0.925 -2.067,2.067c0,0.809 0.467,1.707 1.144,2.162c-1.62,0.411 -2.82,1.817 -2.82,2.858c0,1.231 7.486,1.231 7.486,0c0,-1.041 -1.2,-2.447 -2.818,-2.858c0.675,-0.455 1.142,-1.353 1.142,-2.162c0,-0.744 -0.394,-1.389 -0.984,-1.754c0.078,-0.057 0.139,-0.14 0.165,-0.24l1.948,-7.275l1.511,0l0,5.156c0,0.243 0.199,0.442 0.444,0.442c0.244,0 0.444,-0.199 0.444,-0.442l0,-5.156l1.509,0l1.948,7.275c0.053,0.198 0.233,0.328 0.429,0.328c0.038,0 0.077,-0.006 0.114,-0.016c0.235,-0.064 0.377,-0.307 0.314,-0.543l-1.887,-7.045l2.151,0c0.65,0.002 1.18,-0.528 1.18,-1.18Zm-11.228,0.591c-0.326,0 -0.592,-0.265 -0.592,-0.591l0,-1.889c0.029,0.004 0.057,0.014 0.085,0.014c0.278,0 0.537,-0.175 0.629,-0.452c0.115,-0.348 -0.072,-0.723 -0.419,-0.838l-0.295,-0.099l0,-3.827c0,-0.327 0.264,-0.591 0.591,-0.591l10.046,0c0.326,0 0.592,0.264 0.592,0.591l0,7.091c0,0.326 -0.264,0.591 -0.592,0.591l-10.045,0Z" style="fill:#6a6e73;fill-rule:nonzero;"/></g></svg>