<?xml version="1.0" encoding="UTF-8" standalone="no"?><!DOCTYPE svg PUBLIC "-//W3C//DTD SVG 1.1//EN" "http://www.w3.org/Graphics/SVG/1.1/DTD/svg11.dtd"><svg width="100%" height="100%" viewBox="0 0 34 34" version="1.1" xmlns="http://www.w3.org/2000/svg" xmlns:xlink="http://www.w3.org/1999/xlink" xml:space="preserve" xmlns:serif="http://www.serif.com/" style="fill-rule:evenodd;clip-rule:evenodd;stroke-linejoin:round;stroke-miterlimit:2;"><path d="M6.545,7.798c-1.292,1.271 -2.374,2.379 -2.392,2.459c-0.023,0.1 0.014,0.204 0.093,0.268c0.132,0.131 0.212,0.139 1.874,0.139l1.748,0l0,2.88c0,2.762 0,2.893 0.131,3.104c0.19,0.309 0.534,0.491 0.896,0.474c0.405,0.015 0.779,-0.222 0.937,-0.594c0.144,-0.289 0.144,-0.316 0.144,-3.078l0,-2.789l1.7,0c1.825,0 1.991,-0.027 1.991,-0.342c-0.962,-1.214 -2.039,-2.332 -3.217,-3.338l-1.549,-1.496l-2.356,2.313Z" style="fill:none;fill-rule:nonzero;stroke:#6a6e73;stroke-width:0.6px;"/><path d="M16.52,11.213c-0.162,0.084 -0.308,0.199 -0.428,0.337c-0.139,0.184 -0.139,0.267 -0.158,4.402l0,4.213l-13.114,0l0,-2.096c0.023,-0.785 -0.001,-1.57 -0.072,-2.352c-0.175,-0.534 -0.709,-0.873 -1.266,-0.803c-0.355,0.074 -0.656,0.307 -0.817,0.632l-0.152,0.289l0,9.677l0.38,0.38l1.983,0l0.04,-0.243c0.068,-0.894 0.462,-1.732 1.108,-2.353c0.444,-0.485 1.026,-0.821 1.668,-0.963c1.263,-0.337 2.615,0.042 3.519,0.987c0.62,0.621 0.994,1.446 1.054,2.321l0,0.251l6.921,0l0,-0.283c0.051,-0.884 0.44,-1.716 1.087,-2.321c0.675,-0.694 1.603,-1.087 2.571,-1.087c0.968,0 1.896,0.393 2.57,1.087c0.645,0.612 1.034,1.447 1.087,2.334l0,0.268l2.387,0l0.19,-0.19l0.18,-0.185l0,-1.071c0.019,-0.405 -0.005,-0.812 -0.073,-1.212c-0.106,-0.189 -0.305,-0.307 -0.522,-0.31c-0.131,0 -0.131,-0.073 -0.139,-3.415c0.099,-1.229 0.061,-2.465 -0.112,-3.686c-1.08,-1.603 -2.255,-3.139 -3.52,-4.6c-0.203,-0.126 -0.35,-0.132 -3.15,-0.153l-2.944,-0.019l-0.278,0.164Zm4.871,1.964c0.166,0.053 0.318,0.145 0.442,0.268c0.203,0.211 2.063,2.729 2.063,2.788c0,0.059 -1.247,0.032 -2.767,0.032l-2.77,0l0,-3.163l1.405,0c0.543,-0.007 1.087,0.018 1.627,0.075Z" style="fill:none;fill-rule:nonzero;stroke:#6a6e73;stroke-width:0.6px;"/><path d="M5.898,23.355c-1.284,0.355 -2.11,1.627 -1.911,2.944c0.201,1.264 1.302,2.204 2.582,2.204c0.373,0 0.742,-0.08 1.082,-0.234c0.561,-0.26 1.018,-0.701 1.298,-1.253c0.187,-0.344 0.261,-0.738 0.211,-1.126c0.053,-0.392 -0.023,-0.791 -0.217,-1.135c-0.295,-0.581 -0.782,-1.042 -1.378,-1.306c-0.537,-0.181 -1.113,-0.213 -1.667,-0.094Zm1.126,1.793c0.241,0.181 0.404,0.447 0.455,0.744c-0.06,0.296 -0.221,0.562 -0.455,0.752c-0.131,0.075 -0.28,0.114 -0.431,0.114c-0.37,0 -0.702,-0.234 -0.826,-0.582c-0.086,-0.175 -0.086,-0.379 0,-0.554c0.126,-0.35 0.46,-0.584 0.832,-0.584c0.15,0 0.297,0.038 0.428,0.11l-0.003,0Z" style="fill:none;fill-rule:nonzero;stroke:#6a6e73;stroke-width:0.6px;"/><path d="M20.053,23.39c-0.702,0.219 -1.279,0.725 -1.59,1.392c-0.182,0.343 -0.254,0.735 -0.203,1.121c-0.043,0.367 0.019,0.738 0.179,1.07c0.385,0.799 1.132,1.364 2.005,1.518c1.155,0.155 2.286,-0.461 2.78,-1.518c0.16,-0.332 0.222,-0.703 0.18,-1.07c0.044,-0.38 -0.022,-0.765 -0.19,-1.108c-0.303,-0.593 -0.799,-1.065 -1.405,-1.338c-0.563,-0.209 -1.179,-0.233 -1.756,-0.067Zm1.247,1.78c0.238,0.172 0.391,0.438 0.423,0.73c-0.016,0.131 -0.054,0.257 -0.113,0.375c-0.147,0.294 -0.448,0.48 -0.777,0.48c-0.329,0 -0.63,-0.186 -0.777,-0.48c-0.139,-0.231 -0.139,-0.521 0,-0.752c0.142,-0.299 0.447,-0.487 0.778,-0.482c0.162,0.008 0.32,0.052 0.463,0.129l0.003,0Z" style="fill:none;fill-rule:nonzero;stroke:#6a6e73;stroke-width:0.6px;"/></svg>