<?xml version="1.0" encoding="UTF-8"?>
<svg xmlns="http://www.w3.org/2000/svg" xmlns:xlink="http://www.w3.org/1999/xlink" width="25pt" height="25pt" viewBox="0 0 25 25" version="1.1">
<g id="surface1">
<path style=" stroke:none;fill-rule:nonzero;fill:rgb(41.568627%,43.137255%,45.098039%);fill-opacity:1;" d="M 24.542969 22.207031 L 0.390625 22.207031 C 0.175781 22.207031 0 22.03125 0 21.816406 C 0 21.601562 0.175781 21.425781 0.390625 21.425781 L 24.542969 21.425781 C 24.757812 21.425781 24.933594 21.601562 24.933594 21.816406 C 24.933594 22.03125 24.757812 22.207031 24.542969 22.207031 Z M 24.542969 22.207031 "/>
<path style=" stroke:none;fill-rule:nonzero;fill:rgb(41.568627%,43.137255%,45.098039%);fill-opacity:1;" d="M 24.542969 22.207031 C 24.328125 22.207031 24.152344 22.03125 24.152344 21.816406 L 24.152344 9.734375 C 24.152344 9.519531 24.328125 9.34375 24.542969 9.34375 C 24.757812 9.34375 24.933594 9.519531 24.933594 9.734375 L 24.933594 21.816406 C 24.933594 22.03125 24.757812 22.207031 24.542969 22.207031 Z M 24.542969 22.207031 "/>
<path style=" stroke:none;fill-rule:nonzero;fill:rgb(41.568627%,43.137255%,45.098039%);fill-opacity:1;" d="M 16.75 22.207031 C 16.535156 22.207031 16.363281 22.03125 16.363281 21.816406 L 16.363281 9.734375 C 16.363281 9.519531 16.535156 9.34375 16.75 9.34375 C 16.96875 9.34375 17.140625 9.519531 17.140625 9.734375 L 17.140625 21.816406 C 17.140625 22.03125 16.96875 22.207031 16.75 22.207031 Z M 16.75 22.207031 "/>
<path style=" stroke:none;fill-rule:nonzero;fill:rgb(41.568627%,43.137255%,45.098039%);fill-opacity:1;" d="M 8.183594 22.207031 C 7.964844 22.207031 7.792969 22.03125 7.792969 21.816406 L 7.792969 9.734375 C 7.792969 9.519531 7.964844 9.34375 8.183594 9.34375 C 8.398438 9.34375 8.570312 9.519531 8.570312 9.734375 L 8.570312 21.816406 C 8.570312 22.03125 8.398438 22.207031 8.183594 22.207031 Z M 8.183594 22.207031 "/>
<path style=" stroke:none;fill-rule:nonzero;fill:rgb(41.568627%,43.137255%,45.098039%);fill-opacity:1;" d="M 0.390625 22.207031 C 0.175781 22.207031 0 22.03125 0 21.816406 L 0 9.734375 C 0 9.519531 0.175781 9.34375 0.390625 9.34375 C 0.605469 9.34375 0.78125 9.519531 0.78125 9.734375 L 0.78125 21.816406 C 0.78125 22.03125 0.605469 22.207031 0.390625 22.207031 Z M 0.390625 22.207031 "/>
<path style=" stroke:none;fill-rule:nonzero;fill:rgb(41.568627%,43.137255%,45.098039%);fill-opacity:1;" d="M 24.542969 10.125 L 23.765625 10.125 C 23.550781 10.125 23.375 9.949219 23.375 9.734375 C 23.375 9.519531 23.550781 9.34375 23.765625 9.34375 L 24.542969 9.34375 C 24.757812 9.34375 24.933594 9.519531 24.933594 9.734375 C 24.933594 9.949219 24.757812 10.125 24.542969 10.125 Z M 24.542969 10.125 "/>
<path style=" stroke:none;fill-rule:nonzero;fill:rgb(41.568627%,43.137255%,45.098039%);fill-opacity:1;" d="M 1.167969 10.125 L 0.390625 10.125 C 0.175781 10.125 0 9.949219 0 9.734375 C 0 9.519531 0.175781 9.34375 0.390625 9.34375 L 1.167969 9.34375 C 1.382812 9.34375 1.558594 9.519531 1.558594 9.734375 C 1.558594 9.949219 1.382812 10.125 1.167969 10.125 Z M 1.167969 10.125 "/>
<path style=" stroke:none;fill-rule:nonzero;fill:rgb(41.568627%,43.137255%,45.098039%);fill-opacity:1;" d="M 17.53125 10.125 L 15.972656 10.125 C 15.757812 10.125 15.582031 9.949219 15.582031 9.734375 C 15.582031 9.519531 15.757812 9.34375 15.972656 9.34375 L 17.53125 9.34375 C 17.746094 9.34375 17.921875 9.519531 17.921875 9.734375 C 17.921875 9.949219 17.746094 10.125 17.53125 10.125 Z M 17.53125 10.125 "/>
<path style=" stroke:none;fill-rule:nonzero;fill:rgb(41.568627%,43.137255%,45.098039%);fill-opacity:1;" d="M 8.960938 10.125 L 7.402344 10.125 C 7.1875 10.125 7.011719 9.949219 7.011719 9.734375 C 7.011719 9.519531 7.1875 9.34375 7.402344 9.34375 L 8.960938 9.34375 C 9.175781 9.34375 9.351562 9.519531 9.351562 9.734375 C 9.351562 9.949219 9.175781 10.125 8.960938 10.125 Z M 8.960938 10.125 "/>
<path style=" stroke:none;fill-rule:nonzero;fill:rgb(41.568627%,43.137255%,45.098039%);fill-opacity:1;" d="M 18.3125 19.085938 C 18.09375 19.085938 17.921875 18.914062 17.921875 18.699219 L 17.921875 12.082031 C 17.921875 11.867188 18.09375 11.691406 18.3125 11.691406 C 18.527344 11.691406 18.699219 11.867188 18.699219 12.082031 L 18.699219 18.699219 C 18.699219 18.914062 18.527344 19.085938 18.3125 19.085938 Z M 18.3125 19.085938 "/>
<path style=" stroke:none;fill-rule:nonzero;fill:rgb(41.568627%,43.137255%,45.098039%);fill-opacity:1;" d="M 18.3125 12.46875 C 18.09375 12.46875 17.921875 12.296875 17.921875 12.082031 C 17.921875 11.4375 18.445312 10.914062 19.089844 10.914062 C 19.304688 10.914062 19.480469 11.085938 19.480469 11.300781 C 19.480469 11.515625 19.304688 11.691406 19.089844 11.691406 C 18.875 11.691406 18.699219 11.867188 18.699219 12.082031 C 18.699219 12.296875 18.527344 12.46875 18.3125 12.46875 Z M 18.3125 12.46875 "/>
<path style=" stroke:none;fill-rule:nonzero;fill:rgb(41.568627%,43.137255%,45.098039%);fill-opacity:1;" d="M 19.871094 20.644531 C 19.347656 20.644531 18.859375 20.441406 18.492188 20.074219 C 18.125 19.707031 17.921875 19.21875 17.921875 18.699219 C 17.921875 18.484375 18.097656 18.308594 18.3125 18.308594 C 18.527344 18.308594 18.699219 18.484375 18.699219 18.699219 C 18.699219 19.011719 18.820312 19.304688 19.042969 19.523438 C 19.265625 19.746094 19.554688 19.867188 19.871094 19.867188 C 20.085938 19.867188 20.257812 20.039062 20.257812 20.257812 C 20.257812 20.472656 20.085938 20.644531 19.871094 20.644531 Z M 19.871094 20.644531 "/>
<path style=" stroke:none;fill-rule:nonzero;fill:rgb(41.568627%,43.137255%,45.098039%);fill-opacity:1;" d="M 22.984375 19.085938 C 22.769531 19.085938 22.597656 18.914062 22.597656 18.699219 L 22.597656 12.082031 C 22.597656 11.867188 22.769531 11.691406 22.984375 11.691406 C 23.199219 11.691406 23.375 11.867188 23.375 12.082031 L 23.375 18.699219 C 23.375 18.914062 23.199219 19.085938 22.984375 19.085938 Z M 22.984375 19.085938 "/>
<path style=" stroke:none;fill-rule:nonzero;fill:rgb(41.568627%,43.137255%,45.098039%);fill-opacity:1;" d="M 22.984375 12.46875 C 22.769531 12.46875 22.597656 12.296875 22.597656 12.082031 C 22.597656 11.867188 22.421875 11.691406 22.207031 11.691406 C 21.992188 11.691406 21.816406 11.515625 21.816406 11.300781 C 21.816406 11.085938 21.992188 10.914062 22.207031 10.914062 C 22.851562 10.914062 23.375 11.4375 23.375 12.082031 C 23.375 12.296875 23.199219 12.46875 22.984375 12.46875 Z M 22.984375 12.46875 "/>
<path style=" stroke:none;fill-rule:nonzero;fill:rgb(41.568627%,43.137255%,45.098039%);fill-opacity:1;" d="M 21.425781 20.644531 C 21.210938 20.644531 21.035156 20.472656 21.035156 20.257812 C 21.035156 20.039062 21.210938 19.867188 21.425781 19.867188 C 22.070312 19.867188 22.597656 19.34375 22.597656 18.699219 C 22.597656 18.484375 22.769531 18.308594 22.984375 18.308594 C 23.199219 18.308594 23.375 18.484375 23.375 18.699219 C 23.375 19.773438 22.5 20.644531 21.425781 20.644531 Z M 21.425781 20.644531 "/>
<path style=" stroke:none;fill-rule:nonzero;fill:rgb(41.568627%,43.137255%,45.098039%);fill-opacity:1;" d="M 22.207031 11.691406 L 19.089844 11.691406 C 18.875 11.691406 18.699219 11.515625 18.699219 11.300781 C 18.699219 11.085938 18.875 10.914062 19.089844 10.914062 L 22.207031 10.914062 C 22.421875 10.914062 22.597656 11.085938 22.597656 11.300781 C 22.597656 11.515625 22.421875 11.691406 22.207031 11.691406 Z M 22.207031 11.691406 "/>
<path style=" stroke:none;fill-rule:nonzero;fill:rgb(41.568627%,43.137255%,45.098039%);fill-opacity:1;" d="M 21.824219 16.75 C 21.824219 16.75 21.820312 16.75 21.816406 16.75 L 19.480469 16.75 C 19.375 16.75 19.277344 16.710938 19.203125 16.636719 C 19.132812 16.5625 19.089844 16.464844 19.089844 16.363281 L 19.089844 12.859375 C 19.089844 12.644531 19.265625 12.46875 19.480469 12.46875 L 21.816406 12.46875 C 22.03125 12.46875 22.207031 12.644531 22.207031 12.859375 L 22.207031 16.285156 C 22.210938 16.308594 22.214844 16.335938 22.214844 16.363281 C 22.214844 16.578125 22.039062 16.75 21.824219 16.75 Z M 19.871094 15.972656 L 21.425781 15.972656 L 21.425781 13.25 L 19.871094 13.25 Z M 19.871094 15.972656 "/>
<path style=" stroke:none;fill-rule:nonzero;fill:rgb(41.568627%,43.137255%,45.098039%);fill-opacity:1;" d="M 22.207031 17.921875 C 22.042969 17.921875 21.890625 17.816406 21.835938 17.652344 L 21.449219 16.484375 C 21.378906 16.28125 21.488281 16.058594 21.695312 15.992188 C 21.898438 15.921875 22.117188 16.035156 22.1875 16.238281 L 22.574219 17.40625 C 22.644531 17.609375 22.535156 17.832031 22.328125 17.898438 C 22.289062 17.914062 22.246094 17.921875 22.207031 17.921875 Z M 22.207031 17.921875 "/>
<path style=" stroke:none;fill-rule:nonzero;fill:rgb(41.568627%,43.137255%,45.098039%);fill-opacity:1;" d="M 19.089844 17.921875 C 19.050781 17.921875 19.007812 17.914062 18.96875 17.898438 C 18.761719 17.832031 18.652344 17.613281 18.722656 17.40625 L 19.109375 16.238281 C 19.179688 16.035156 19.398438 15.921875 19.601562 15.992188 C 19.808594 16.058594 19.917969 16.28125 19.847656 16.484375 L 19.460938 17.652344 C 19.40625 17.816406 19.253906 17.921875 19.089844 17.921875 Z M 19.089844 17.921875 "/>
<path style=" stroke:none;fill-rule:nonzero;fill:rgb(41.568627%,43.137255%,45.098039%);fill-opacity:1;" d="M 20.648438 18.308594 C 19.699219 18.308594 19.132812 18.179688 18.863281 17.902344 C 18.710938 17.742188 18.699219 17.582031 18.699219 17.519531 C 18.707031 17.308594 18.878906 17.140625 19.089844 17.140625 C 19.09375 17.140625 19.097656 17.140625 19.101562 17.140625 C 19.257812 17.144531 19.386719 17.238281 19.445312 17.371094 C 19.527344 17.414062 19.820312 17.53125 20.648438 17.53125 C 21.476562 17.53125 21.769531 17.414062 21.851562 17.371094 C 21.910156 17.238281 22.039062 17.144531 22.195312 17.140625 C 22.199219 17.140625 22.203125 17.140625 22.207031 17.140625 C 22.417969 17.140625 22.589844 17.308594 22.59375 17.519531 C 22.597656 17.582031 22.585938 17.742188 22.433594 17.902344 C 22.164062 18.179688 21.59375 18.308594 20.648438 18.308594 Z M 20.648438 18.308594 "/>
<path style=" stroke:none;fill-rule:nonzero;fill:rgb(41.568627%,43.137255%,45.098039%);fill-opacity:1;" d="M 21.425781 20.644531 L 19.871094 20.644531 C 19.652344 20.644531 19.480469 20.472656 19.480469 20.257812 C 19.480469 20.039062 19.652344 19.867188 19.871094 19.867188 L 21.425781 19.867188 C 21.640625 19.867188 21.816406 20.039062 21.816406 20.257812 C 21.816406 20.472656 21.640625 20.644531 21.425781 20.644531 Z M 21.425781 20.644531 "/>
<path style=" stroke:none;fill-rule:nonzero;fill:rgb(41.568627%,43.137255%,45.098039%);fill-opacity:1;" d="M 23.375 16.75 L 22.984375 16.75 C 22.769531 16.75 22.597656 16.578125 22.597656 16.363281 C 22.597656 16.144531 22.769531 15.972656 22.984375 15.972656 L 23.375 15.972656 C 23.589844 15.972656 23.765625 16.144531 23.765625 16.363281 C 23.765625 16.578125 23.589844 16.75 23.375 16.75 Z M 23.375 16.75 "/>
<path style=" stroke:none;fill-rule:nonzero;fill:rgb(41.568627%,43.137255%,45.098039%);fill-opacity:1;" d="M 18.3125 16.75 L 17.921875 16.75 C 17.707031 16.75 17.53125 16.578125 17.53125 16.363281 C 17.53125 16.144531 17.707031 15.972656 17.921875 15.972656 L 18.3125 15.972656 C 18.527344 15.972656 18.699219 16.144531 18.699219 16.363281 C 18.699219 16.578125 18.527344 16.75 18.3125 16.75 Z M 18.3125 16.75 "/>
<path style=" stroke:none;fill-rule:nonzero;fill:rgb(41.568627%,43.137255%,45.098039%);fill-opacity:1;" d="M 19.480469 13.25 C 19.355469 13.25 19.230469 13.1875 19.15625 13.074219 L 18.261719 11.734375 C 18.140625 11.554688 18.191406 11.3125 18.367188 11.195312 C 18.546875 11.074219 18.789062 11.121094 18.910156 11.300781 L 19.804688 12.644531 C 19.925781 12.820312 19.875 13.0625 19.695312 13.183594 C 19.628906 13.226562 19.554688 13.25 19.480469 13.25 Z M 19.480469 13.25 "/>
<path style=" stroke:none;fill-rule:nonzero;fill:rgb(41.568627%,43.137255%,45.098039%);fill-opacity:1;" d="M 21.816406 13.25 C 21.742188 13.25 21.667969 13.226562 21.601562 13.183594 C 21.421875 13.0625 21.375 12.820312 21.492188 12.644531 L 22.386719 11.300781 C 22.507812 11.121094 22.75 11.074219 22.929688 11.195312 C 23.105469 11.3125 23.15625 11.554688 23.035156 11.734375 L 22.140625 13.074219 C 22.066406 13.1875 21.941406 13.25 21.816406 13.25 Z M 21.816406 13.25 "/>
<path style=" stroke:none;fill-rule:nonzero;fill:rgb(41.568627%,43.137255%,45.098039%);fill-opacity:1;" d="M 10.128906 10.902344 C 9.914062 10.902344 9.742188 10.726562 9.742188 10.511719 L 9.742188 3.894531 C 9.742188 3.679688 9.914062 3.507812 10.128906 3.507812 C 10.34375 3.507812 10.519531 3.679688 10.519531 3.894531 L 10.519531 10.511719 C 10.519531 10.726562 10.34375 10.902344 10.128906 10.902344 Z M 10.128906 10.902344 "/>
<path style=" stroke:none;fill-rule:nonzero;fill:rgb(41.568627%,43.137255%,45.098039%);fill-opacity:1;" d="M 10.128906 4.285156 C 9.914062 4.285156 9.738281 4.109375 9.738281 3.894531 C 9.738281 3.25 10.265625 2.726562 10.910156 2.726562 C 11.125 2.726562 11.296875 2.902344 11.296875 3.117188 C 11.296875 3.332031 11.125 3.507812 10.910156 3.507812 C 10.695312 3.507812 10.519531 3.679688 10.519531 3.894531 C 10.519531 4.109375 10.34375 4.285156 10.128906 4.285156 Z M 10.128906 4.285156 "/>
<path style=" stroke:none;fill-rule:nonzero;fill:rgb(41.568627%,43.137255%,45.098039%);fill-opacity:1;" d="M 11.6875 12.460938 C 11.167969 12.460938 10.679688 12.257812 10.308594 11.890625 C 9.941406 11.523438 9.738281 11.03125 9.742188 10.511719 C 9.742188 10.296875 9.914062 10.121094 10.128906 10.121094 C 10.34375 10.121094 10.519531 10.296875 10.519531 10.511719 C 10.519531 10.824219 10.640625 11.117188 10.859375 11.339844 C 11.082031 11.558594 11.375 11.679688 11.6875 11.679688 C 11.902344 11.679688 12.078125 11.855469 12.078125 12.070312 C 12.078125 12.285156 11.902344 12.460938 11.6875 12.460938 Z M 11.6875 12.460938 "/>
<path style=" stroke:none;fill-rule:nonzero;fill:rgb(41.568627%,43.137255%,45.098039%);fill-opacity:1;" d="M 14.804688 10.902344 C 14.589844 10.902344 14.414062 10.726562 14.414062 10.511719 L 14.414062 3.894531 C 14.414062 3.679688 14.589844 3.503906 14.804688 3.503906 C 15.019531 3.503906 15.191406 3.679688 15.191406 3.894531 L 15.191406 10.511719 C 15.191406 10.726562 15.019531 10.902344 14.804688 10.902344 Z M 14.804688 10.902344 "/>
<path style=" stroke:none;fill-rule:nonzero;fill:rgb(41.568627%,43.137255%,45.098039%);fill-opacity:1;" d="M 14.804688 4.285156 C 14.589844 4.285156 14.414062 4.109375 14.414062 3.894531 C 14.414062 3.679688 14.238281 3.507812 14.023438 3.507812 C 13.808594 3.507812 13.636719 3.332031 13.636719 3.117188 C 13.636719 2.902344 13.808594 2.726562 14.023438 2.726562 C 14.667969 2.726562 15.191406 3.25 15.191406 3.894531 C 15.191406 4.109375 15.019531 4.285156 14.804688 4.285156 Z M 14.804688 4.285156 "/>
<path style=" stroke:none;fill-rule:nonzero;fill:rgb(41.568627%,43.137255%,45.098039%);fill-opacity:1;" d="M 13.246094 12.460938 C 13.03125 12.460938 12.855469 12.285156 12.855469 12.070312 C 12.855469 11.855469 13.03125 11.679688 13.246094 11.679688 C 13.890625 11.679688 14.414062 11.15625 14.414062 10.511719 C 14.414062 10.296875 14.589844 10.121094 14.804688 10.121094 C 15.019531 10.121094 15.191406 10.296875 15.191406 10.511719 C 15.191406 11.585938 14.320312 12.460938 13.246094 12.460938 Z M 13.246094 12.460938 "/>
<path style=" stroke:none;fill-rule:nonzero;fill:rgb(41.568627%,43.137255%,45.098039%);fill-opacity:1;" d="M 14.023438 3.507812 L 10.910156 3.507812 C 10.695312 3.507812 10.519531 3.332031 10.519531 3.117188 C 10.519531 2.902344 10.695312 2.726562 10.910156 2.726562 L 14.023438 2.726562 C 14.238281 2.726562 14.414062 2.902344 14.414062 3.117188 C 14.414062 3.332031 14.238281 3.507812 14.023438 3.507812 Z M 14.023438 3.507812 "/>
<path style=" stroke:none;fill-rule:nonzero;fill:rgb(41.568627%,43.137255%,45.098039%);fill-opacity:1;" d="M 11.296875 8.566406 C 11.195312 8.566406 11.09375 8.527344 11.023438 8.453125 C 10.949219 8.378906 10.910156 8.28125 10.910156 8.175781 L 10.910156 4.675781 C 10.910156 4.457031 11.082031 4.285156 11.296875 4.285156 L 13.636719 4.285156 C 13.851562 4.285156 14.023438 4.457031 14.023438 4.675781 L 14.023438 8.175781 C 14.023438 8.390625 13.851562 8.566406 13.636719 8.566406 Z M 11.6875 5.0625 L 11.6875 7.789062 L 13.246094 7.785156 L 13.246094 5.0625 Z M 11.6875 5.0625 "/>
<path style=" stroke:none;fill-rule:nonzero;fill:rgb(41.568627%,43.137255%,45.098039%);fill-opacity:1;" d="M 14.023438 9.734375 C 13.863281 9.734375 13.710938 9.632812 13.65625 9.46875 L 13.265625 8.300781 C 13.199219 8.09375 13.308594 7.875 13.511719 7.804688 C 13.71875 7.738281 13.9375 7.847656 14.003906 8.050781 L 14.394531 9.222656 C 14.460938 9.425781 14.351562 9.644531 14.148438 9.714844 C 14.105469 9.726562 14.066406 9.734375 14.023438 9.734375 Z M 14.023438 9.734375 "/>
<path style=" stroke:none;fill-rule:nonzero;fill:rgb(41.568627%,43.137255%,45.098039%);fill-opacity:1;" d="M 10.910156 9.734375 C 10.867188 9.734375 10.824219 9.726562 10.785156 9.714844 C 10.582031 9.644531 10.472656 9.425781 10.539062 9.222656 L 10.929688 8.054688 C 10.996094 7.847656 11.214844 7.738281 11.421875 7.808594 C 11.625 7.875 11.734375 8.09375 11.667969 8.300781 L 11.277344 9.46875 C 11.222656 9.632812 11.070312 9.734375 10.910156 9.734375 Z M 10.910156 9.734375 "/>
<path style=" stroke:none;fill-rule:nonzero;fill:rgb(41.568627%,43.137255%,45.098039%);fill-opacity:1;" d="M 12.464844 10.125 C 11.519531 10.125 10.953125 9.996094 10.683594 9.714844 C 10.527344 9.558594 10.515625 9.394531 10.519531 9.332031 C 10.527344 9.117188 10.707031 8.941406 10.921875 8.957031 C 11.074219 8.960938 11.207031 9.054688 11.265625 9.1875 C 11.34375 9.230469 11.636719 9.34375 12.464844 9.34375 C 13.296875 9.34375 13.589844 9.230469 13.667969 9.1875 C 13.726562 9.054688 13.859375 8.960938 14.011719 8.957031 C 14.21875 8.945312 14.40625 9.117188 14.414062 9.332031 C 14.414062 9.394531 14.40625 9.558594 14.25 9.714844 C 13.980469 9.996094 13.414062 10.125 12.464844 10.125 Z M 12.464844 10.125 "/>
<path style=" stroke:none;fill-rule:nonzero;fill:rgb(41.568627%,43.137255%,45.098039%);fill-opacity:1;" d="M 13.246094 12.460938 L 11.6875 12.460938 C 11.472656 12.460938 11.296875 12.285156 11.296875 12.070312 C 11.296875 11.855469 11.472656 11.679688 11.6875 11.679688 L 13.246094 11.679688 C 13.460938 11.679688 13.636719 11.855469 13.636719 12.070312 C 13.636719 12.285156 13.460938 12.460938 13.246094 12.460938 Z M 13.246094 12.460938 "/>
<path style=" stroke:none;fill-rule:nonzero;fill:rgb(41.568627%,43.137255%,45.098039%);fill-opacity:1;" d="M 15.191406 8.566406 L 14.804688 8.566406 C 14.589844 8.566406 14.414062 8.390625 14.414062 8.175781 C 14.414062 7.960938 14.589844 7.785156 14.804688 7.785156 L 15.191406 7.785156 C 15.410156 7.785156 15.582031 7.960938 15.582031 8.175781 C 15.582031 8.390625 15.410156 8.566406 15.191406 8.566406 Z M 15.191406 8.566406 "/>
<path style=" stroke:none;fill-rule:nonzero;fill:rgb(41.568627%,43.137255%,45.098039%);fill-opacity:1;" d="M 10.128906 8.566406 L 9.738281 8.566406 C 9.523438 8.566406 9.351562 8.390625 9.351562 8.175781 C 9.351562 7.960938 9.523438 7.785156 9.738281 7.785156 L 10.128906 7.785156 C 10.34375 7.785156 10.519531 7.960938 10.519531 8.175781 C 10.519531 8.390625 10.34375 8.566406 10.128906 8.566406 Z M 10.128906 8.566406 "/>
<path style=" stroke:none;fill-rule:nonzero;fill:rgb(41.568627%,43.137255%,45.098039%);fill-opacity:1;" d="M 11.296875 5.0625 C 11.171875 5.0625 11.050781 5.003906 10.972656 4.890625 L 10.078125 3.546875 C 9.960938 3.371094 10.007812 3.128906 10.1875 3.007812 C 10.367188 2.890625 10.609375 2.9375 10.726562 3.117188 L 11.621094 4.457031 C 11.742188 4.636719 11.695312 4.878906 11.515625 5 C 11.449219 5.042969 11.371094 5.0625 11.296875 5.0625 Z M 11.296875 5.0625 "/>
<path style=" stroke:none;fill-rule:nonzero;fill:rgb(41.568627%,43.137255%,45.098039%);fill-opacity:1;" d="M 13.636719 5.0625 C 13.5625 5.0625 13.484375 5.042969 13.417969 4.996094 C 13.238281 4.878906 13.191406 4.636719 13.3125 4.457031 L 14.207031 3.117188 C 14.324219 2.9375 14.566406 2.890625 14.746094 3.007812 C 14.925781 3.128906 14.972656 3.371094 14.855469 3.546875 L 13.960938 4.890625 C 13.882812 5.003906 13.761719 5.0625 13.636719 5.0625 Z M 13.636719 5.0625 "/>
<path style=" stroke:none;fill-rule:nonzero;fill:rgb(41.568627%,43.137255%,45.098039%);fill-opacity:1;" d="M 1.949219 19.085938 C 1.734375 19.085938 1.558594 18.914062 1.558594 18.699219 L 1.558594 12.082031 C 1.558594 11.867188 1.734375 11.691406 1.949219 11.691406 C 2.164062 11.691406 2.339844 11.867188 2.339844 12.082031 L 2.339844 18.699219 C 2.339844 18.914062 2.164062 19.085938 1.949219 19.085938 Z M 1.949219 19.085938 "/>
<path style=" stroke:none;fill-rule:nonzero;fill:rgb(41.568627%,43.137255%,45.098039%);fill-opacity:1;" d="M 1.949219 12.46875 C 1.734375 12.46875 1.558594 12.296875 1.558594 12.082031 C 1.558594 11.4375 2.085938 10.914062 2.726562 10.914062 C 2.945312 10.914062 3.117188 11.085938 3.117188 11.300781 C 3.117188 11.515625 2.945312 11.691406 2.726562 11.691406 C 2.511719 11.691406 2.339844 11.867188 2.339844 12.082031 C 2.339844 12.296875 2.164062 12.46875 1.949219 12.46875 Z M 1.949219 12.46875 "/>
<path style=" stroke:none;fill-rule:nonzero;fill:rgb(41.568627%,43.137255%,45.098039%);fill-opacity:1;" d="M 3.507812 20.644531 C 2.988281 20.644531 2.496094 20.441406 2.128906 20.074219 C 1.761719 19.707031 1.558594 19.21875 1.558594 18.699219 C 1.558594 18.484375 1.734375 18.308594 1.949219 18.308594 C 2.164062 18.308594 2.339844 18.484375 2.339844 18.699219 C 2.339844 19.011719 2.460938 19.304688 2.679688 19.523438 C 2.902344 19.746094 3.195312 19.867188 3.507812 19.867188 C 3.722656 19.867188 3.898438 20.039062 3.898438 20.257812 C 3.898438 20.472656 3.722656 20.644531 3.507812 20.644531 Z M 3.507812 20.644531 "/>
<path style=" stroke:none;fill-rule:nonzero;fill:rgb(41.568627%,43.137255%,45.098039%);fill-opacity:1;" d="M 6.625 19.085938 C 6.40625 19.085938 6.234375 18.914062 6.234375 18.699219 L 6.234375 12.082031 C 6.234375 11.867188 6.40625 11.691406 6.625 11.691406 C 6.839844 11.691406 7.011719 11.867188 7.011719 12.082031 L 7.011719 18.699219 C 7.011719 18.914062 6.839844 19.085938 6.625 19.085938 Z M 6.625 19.085938 "/>
<path style=" stroke:none;fill-rule:nonzero;fill:rgb(41.568627%,43.137255%,45.098039%);fill-opacity:1;" d="M 6.625 12.46875 C 6.40625 12.46875 6.234375 12.296875 6.234375 12.082031 C 6.234375 11.867188 6.058594 11.691406 5.84375 11.691406 C 5.628906 11.691406 5.453125 11.515625 5.453125 11.300781 C 5.453125 11.085938 5.628906 10.914062 5.84375 10.914062 C 6.488281 10.914062 7.011719 11.4375 7.011719 12.082031 C 7.011719 12.296875 6.839844 12.46875 6.625 12.46875 Z M 6.625 12.46875 "/>
<path style=" stroke:none;fill-rule:nonzero;fill:rgb(41.568627%,43.137255%,45.098039%);fill-opacity:1;" d="M 5.066406 20.644531 C 4.851562 20.644531 4.675781 20.472656 4.675781 20.257812 C 4.675781 20.039062 4.851562 19.867188 5.066406 19.867188 C 5.710938 19.867188 6.234375 19.34375 6.234375 18.699219 C 6.234375 18.484375 6.40625 18.308594 6.625 18.308594 C 6.839844 18.308594 7.011719 18.484375 7.011719 18.699219 C 7.011719 19.773438 6.140625 20.644531 5.066406 20.644531 Z M 5.066406 20.644531 "/>
<path style=" stroke:none;fill-rule:nonzero;fill:rgb(41.568627%,43.137255%,45.098039%);fill-opacity:1;" d="M 5.84375 11.691406 L 2.726562 11.691406 C 2.511719 11.691406 2.339844 11.515625 2.339844 11.300781 C 2.339844 11.085938 2.511719 10.914062 2.726562 10.914062 L 5.84375 10.914062 C 6.058594 10.914062 6.234375 11.085938 6.234375 11.300781 C 6.234375 11.515625 6.058594 11.691406 5.84375 11.691406 Z M 5.84375 11.691406 "/>
<path style=" stroke:none;fill-rule:nonzero;fill:rgb(41.568627%,43.137255%,45.098039%);fill-opacity:1;" d="M 5.460938 16.75 C 5.460938 16.75 5.457031 16.75 5.453125 16.75 L 3.117188 16.75 C 3.015625 16.75 2.914062 16.710938 2.84375 16.636719 C 2.769531 16.5625 2.726562 16.464844 2.726562 16.363281 L 2.726562 12.859375 C 2.726562 12.644531 2.902344 12.46875 3.117188 12.46875 L 5.453125 12.46875 C 5.667969 12.46875 5.84375 12.644531 5.84375 12.859375 L 5.84375 16.285156 C 5.851562 16.308594 5.851562 16.335938 5.851562 16.363281 C 5.851562 16.578125 5.675781 16.75 5.460938 16.75 Z M 3.507812 15.972656 L 5.066406 15.972656 L 5.066406 13.25 L 3.507812 13.25 Z M 3.507812 15.972656 "/>
<path style=" stroke:none;fill-rule:nonzero;fill:rgb(41.568627%,43.137255%,45.098039%);fill-opacity:1;" d="M 5.84375 17.921875 C 5.679688 17.921875 5.53125 17.816406 5.476562 17.652344 L 5.085938 16.484375 C 5.015625 16.28125 5.128906 16.058594 5.332031 15.992188 C 5.539062 15.921875 5.757812 16.035156 5.824219 16.238281 L 6.214844 17.40625 C 6.28125 17.609375 6.171875 17.832031 5.96875 17.898438 C 5.925781 17.914062 5.886719 17.921875 5.84375 17.921875 Z M 5.84375 17.921875 "/>
<path style=" stroke:none;fill-rule:nonzero;fill:rgb(41.568627%,43.137255%,45.098039%);fill-opacity:1;" d="M 2.726562 17.921875 C 2.6875 17.921875 2.644531 17.914062 2.605469 17.898438 C 2.402344 17.832031 2.289062 17.613281 2.359375 17.40625 L 2.75 16.238281 C 2.816406 16.035156 3.035156 15.921875 3.242188 15.992188 C 3.445312 16.058594 3.554688 16.28125 3.488281 16.484375 L 3.097656 17.652344 C 3.042969 17.816406 2.890625 17.921875 2.726562 17.921875 Z M 2.726562 17.921875 "/>
<path style=" stroke:none;fill-rule:nonzero;fill:rgb(41.568627%,43.137255%,45.098039%);fill-opacity:1;" d="M 4.285156 18.308594 C 3.339844 18.308594 2.773438 18.179688 2.503906 17.902344 C 2.347656 17.742188 2.335938 17.582031 2.339844 17.519531 C 2.347656 17.308594 2.519531 17.140625 2.726562 17.140625 C 2.730469 17.140625 2.734375 17.140625 2.738281 17.140625 C 2.894531 17.144531 3.023438 17.238281 3.085938 17.371094 C 3.164062 17.414062 3.457031 17.53125 4.285156 17.53125 C 5.117188 17.53125 5.410156 17.414062 5.488281 17.371094 C 5.546875 17.238281 5.675781 17.144531 5.832031 17.140625 C 5.835938 17.140625 5.839844 17.140625 5.84375 17.140625 C 6.054688 17.140625 6.226562 17.308594 6.234375 17.519531 C 6.234375 17.582031 6.222656 17.742188 6.070312 17.902344 C 5.800781 18.179688 5.234375 18.308594 4.285156 18.308594 Z M 4.285156 18.308594 "/>
<path style=" stroke:none;fill-rule:nonzero;fill:rgb(41.568627%,43.137255%,45.098039%);fill-opacity:1;" d="M 5.066406 20.644531 L 3.507812 20.644531 C 3.292969 20.644531 3.117188 20.472656 3.117188 20.257812 C 3.117188 20.039062 3.292969 19.867188 3.507812 19.867188 L 5.066406 19.867188 C 5.28125 19.867188 5.453125 20.039062 5.453125 20.257812 C 5.453125 20.472656 5.28125 20.644531 5.066406 20.644531 Z M 5.066406 20.644531 "/>
<path style=" stroke:none;fill-rule:nonzero;fill:rgb(41.568627%,43.137255%,45.098039%);fill-opacity:1;" d="M 7.011719 16.75 L 6.625 16.75 C 6.40625 16.75 6.234375 16.578125 6.234375 16.363281 C 6.234375 16.144531 6.40625 15.972656 6.625 15.972656 L 7.011719 15.972656 C 7.230469 15.972656 7.402344 16.144531 7.402344 16.363281 C 7.402344 16.578125 7.230469 16.75 7.011719 16.75 Z M 7.011719 16.75 "/>
<path style=" stroke:none;fill-rule:nonzero;fill:rgb(41.568627%,43.137255%,45.098039%);fill-opacity:1;" d="M 1.949219 16.75 L 1.558594 16.75 C 1.34375 16.75 1.171875 16.578125 1.171875 16.363281 C 1.171875 16.144531 1.34375 15.972656 1.558594 15.972656 L 1.949219 15.972656 C 2.164062 15.972656 2.339844 16.144531 2.339844 16.363281 C 2.339844 16.578125 2.164062 16.75 1.949219 16.75 Z M 1.949219 16.75 "/>
<path style=" stroke:none;fill-rule:nonzero;fill:rgb(41.568627%,43.137255%,45.098039%);fill-opacity:1;" d="M 3.117188 13.25 C 2.992188 13.25 2.867188 13.1875 2.792969 13.074219 L 1.898438 11.734375 C 1.78125 11.554688 1.828125 11.3125 2.007812 11.195312 C 2.1875 11.074219 2.429688 11.121094 2.546875 11.300781 L 3.441406 12.644531 C 3.5625 12.820312 3.511719 13.0625 3.335938 13.183594 C 3.269531 13.226562 3.191406 13.25 3.117188 13.25 Z M 3.117188 13.25 "/>
<path style=" stroke:none;fill-rule:nonzero;fill:rgb(41.568627%,43.137255%,45.098039%);fill-opacity:1;" d="M 5.453125 13.25 C 5.378906 13.25 5.304688 13.226562 5.238281 13.183594 C 5.058594 13.0625 5.011719 12.820312 5.128906 12.644531 L 6.027344 11.300781 C 6.144531 11.121094 6.386719 11.074219 6.566406 11.195312 C 6.746094 11.3125 6.792969 11.554688 6.675781 11.734375 L 5.777344 13.074219 C 5.703125 13.1875 5.582031 13.25 5.453125 13.25 Z M 5.453125 13.25 "/>
<path style=" stroke:none;fill-rule:nonzero;fill:rgb(41.568627%,43.137255%,45.098039%);fill-opacity:1;" d="M 12.464844 20.648438 C 12.25 20.648438 12.078125 20.472656 12.078125 20.257812 L 12.078125 13.632812 C 12.078125 13.417969 12.25 13.242188 12.464844 13.242188 C 12.683594 13.242188 12.855469 13.417969 12.855469 13.632812 L 12.855469 20.257812 C 12.855469 20.472656 12.683594 20.648438 12.464844 20.648438 Z M 12.464844 20.648438 "/>
<path style=" stroke:none;fill-rule:nonzero;fill:rgb(41.568627%,43.137255%,45.098039%);fill-opacity:1;" d="M 12.464844 20.648438 C 12.367188 20.648438 12.265625 20.609375 12.191406 20.53125 C 12.039062 20.378906 12.039062 20.132812 12.191406 19.980469 L 12.96875 19.203125 C 13.121094 19.050781 13.371094 19.050781 13.519531 19.203125 C 13.671875 19.355469 13.671875 19.601562 13.519531 19.753906 L 12.742188 20.53125 C 12.667969 20.609375 12.566406 20.648438 12.464844 20.648438 Z M 12.464844 20.648438 "/>
<path style=" stroke:none;fill-rule:nonzero;fill:rgb(41.568627%,43.137255%,45.098039%);fill-opacity:1;" d="M 12.464844 20.648438 C 12.367188 20.648438 12.265625 20.609375 12.191406 20.53125 L 11.414062 19.753906 C 11.257812 19.601562 11.257812 19.355469 11.414062 19.203125 C 11.5625 19.050781 11.8125 19.050781 11.960938 19.203125 L 12.742188 19.980469 C 12.894531 20.132812 12.894531 20.378906 12.742188 20.53125 C 12.667969 20.609375 12.566406 20.648438 12.464844 20.648438 Z M 12.464844 20.648438 "/>
</g>
</svg>
