<?xml version="1.0" encoding="UTF-8" standalone="no"?><!DOCTYPE svg PUBLIC "-//W3C//DTD SVG 1.1//EN" "http://www.w3.org/Graphics/SVG/1.1/DTD/svg11.dtd"><svg width="100%" height="100%" viewBox="0 0 34 34" version="1.1" xmlns="http://www.w3.org/2000/svg" xmlns:xlink="http://www.w3.org/1999/xlink" xml:space="preserve" xmlns:serif="http://www.serif.com/" style="fill-rule:evenodd;clip-rule:evenodd;stroke-linejoin:round;stroke-miterlimit:2;"><path id="es-trailers" d="M28.499,21.87l-0.731,0l0,-5.484c0,-0.645 -0.232,-1.264 -0.643,-1.72l-4.563,-5.068c-0.41,-0.457 -0.968,-0.714 -1.549,-0.715l-2.014,0l0,-2.435c0,-1.335 -0.989,-2.435 -2.192,-2.435l-14.615,0c-1.202,0 -2.192,1.1 -2.192,2.435l0,16.234c0,1.335 0.99,2.435 2.192,2.435l0.731,0c0,2.671 1.979,4.87 4.384,4.87c2.406,0 4.385,-2.199 4.385,-4.87l5.846,0c0,2.671 1.979,4.87 4.384,4.87c2.405,0 4.385,-2.199 4.385,-4.87l2.192,0c0.4,-0.002 0.729,-0.367 0.731,-0.812l0,-1.623c-0.002,-0.445 -0.331,-0.81 -0.731,-0.812Zm-21.192,5.682c-1.202,0 -2.192,-1.1 -2.192,-2.435c0,-1.336 0.99,-2.435 2.192,-2.435c1.203,0 2.193,1.099 2.193,2.435c0,1.335 -0.99,2.435 -2.193,2.435Zm14.615,0c-1.202,0 -2.192,-1.1 -2.192,-2.435c0,-1.336 0.99,-2.435 2.192,-2.435c1.203,0 2.192,1.099 2.192,2.435c0,1.335 -0.989,2.435 -2.192,2.435Zm3.654,-10.552l-6.577,0l0,-5.682l2.014,0l4.563,5.068l0,0.614Z" style="fill:none;fill-rule:nonzero;stroke:#6a6e73;stroke-width:0.58px;"/></svg>