<?xml version="1.0" encoding="UTF-8" standalone="no"?><!DOCTYPE svg PUBLIC "-//W3C//DTD SVG 1.1//EN" "http://www.w3.org/Graphics/SVG/1.1/DTD/svg11.dtd"><svg width="100%" height="100%" viewBox="0 0 34 34" version="1.1" xmlns="http://www.w3.org/2000/svg" xmlns:xlink="http://www.w3.org/1999/xlink" xml:space="preserve" xmlns:serif="http://www.serif.com/" style="fill-rule:evenodd;clip-rule:evenodd;stroke-linejoin:round;stroke-miterlimit:2;"><path id="XMLID_118_" d="M3.921,22.29c0,-0.29 0.234,-0.524 0.523,-0.524l0.125,0c0.29,0 0.524,0.234 0.524,0.524c0,0.289 -0.234,0.523 -0.524,0.523l-0.125,0c-0.289,0 -0.523,-0.234 -0.523,-0.523Zm11.348,-11.024c-0.711,0.24 -1.188,0.904 -1.188,1.652c0,0.961 0.782,1.743 1.743,1.743l4.742,0c0.961,0 1.743,-0.782 1.743,-1.743c0,-0.748 -0.477,-1.412 -1.188,-1.652c-0.274,-0.093 -0.571,0.054 -0.664,0.328c-0.092,0.274 0.055,0.572 0.329,0.664c0.284,0.096 0.475,0.361 0.475,0.66c0,0.383 -0.312,0.695 -0.695,0.695l-4.742,0c-0.384,0 -0.696,-0.312 -0.696,-0.695c0,-0.299 0.191,-0.564 0.476,-0.66c0.274,-0.093 0.421,-0.39 0.328,-0.664c-0.092,-0.274 -0.389,-0.421 -0.663,-0.328Zm-7.836,15.316c-0.274,-0.093 -0.571,0.054 -0.664,0.328c-0.092,0.274 0.055,0.572 0.329,0.664c0.284,0.096 0.476,0.361 0.476,0.66c0,0.383 -0.312,0.696 -0.696,0.696l-4.742,0c-0.384,0 -0.696,-0.313 -0.696,-0.696c0,-0.299 0.192,-0.564 0.476,-0.66c0.274,-0.092 0.421,-0.39 0.329,-0.664c-0.093,-0.274 -0.39,-0.421 -0.664,-0.328c-0.711,0.24 -1.188,0.904 -1.188,1.652c0,0.961 0.782,1.743 1.743,1.743l4.742,0c0.961,0 1.743,-0.782 1.743,-1.743c0,-0.748 -0.477,-1.412 -1.188,-1.652Zm-4.365,-0.417c-0.933,-1.834 -1.512,-3.122 -1.512,-3.875c0,-1.627 1.324,-2.951 2.951,-2.951c1.627,0 2.95,1.324 2.95,2.951c0,0.754 -0.578,2.042 -1.511,3.875c0,0 -0.334,0.659 -0.35,0.694c-0.135,0.282 -0.386,0.808 -1.089,0.808c-0.703,0 -0.954,-0.526 -1.089,-0.808c-0.016,-0.035 -0.35,-0.694 -0.35,-0.694Zm-0.464,-3.875c0,0.653 0.979,2.578 1.398,3.4c0,0 0.445,0.892 0.475,0.928c0.018,0.026 0.046,0.012 0.06,0c0.03,-0.036 0.08,-0.14 0.113,-0.21c0.02,-0.042 0.363,-0.718 0.363,-0.718c0.418,-0.822 1.397,-2.746 1.397,-3.4c0,-1.05 -0.854,-1.903 -1.903,-1.903c-1.049,0 -1.903,0.853 -1.903,1.903Zm21.36,-17.743l0,3.754c0,0.289 -0.234,0.523 -0.524,0.523l-4.721,0l0,2.414l0.414,0c0.29,0 0.524,0.235 0.524,0.524c0,0.289 -0.234,0.524 -0.524,0.524l-1.877,0c-0.289,0 -0.523,-0.235 -0.523,-0.524c0,-0.289 0.234,-0.524 0.523,-0.524l0.415,0l0,-2.926c0,-0.004 0,-0.008 0,-0.011c0,-0.004 0,-0.008 0,-0.011l0,-3.732c0,-0.004 0,-0.008 0,-0.011c0,-0.29 0.234,-0.524 0.524,-0.524l5.245,0c0.29,0 0.524,0.234 0.524,0.524Zm-1.047,0.523l-4.198,0l0,2.707l4.198,0l0,-2.707Zm-3.231,11.406l-15.015,0c-1.782,0 -3.231,-1.449 -3.231,-3.23c0,-1.781 1.449,-3.23 3.231,-3.23l10.559,0c0.289,0 0.524,-0.235 0.524,-0.524c0,-0.289 -0.235,-0.524 -0.524,-0.524l-10.559,0c-2.359,0 -4.278,1.919 -4.278,4.278c0,2.359 1.919,4.278 4.278,4.278l15.015,0c1.782,0 3.231,1.449 3.231,3.23c0,1.781 -1.449,3.23 -3.231,3.23l-10.559,0c-0.289,0 -0.524,0.235 -0.524,0.524c0,0.289 0.235,0.524 0.524,0.524l10.559,0c2.359,0 4.278,-1.919 4.278,-4.278c0,-2.359 -1.919,-4.278 -4.278,-4.278Z" style="fill:#6a6e73;fill-rule:nonzero;"/></svg>