<?xml version="1.0" encoding="UTF-8" standalone="no"?><!DOCTYPE svg PUBLIC "-//W3C//DTD SVG 1.1//EN" "http://www.w3.org/Graphics/SVG/1.1/DTD/svg11.dtd"><svg width="100%" height="100%" viewBox="0 0 34 34" version="1.1" xmlns="http://www.w3.org/2000/svg" xmlns:xlink="http://www.w3.org/1999/xlink" xml:space="preserve" xmlns:serif="http://www.serif.com/" style="fill-rule:evenodd;clip-rule:evenodd;stroke-linejoin:round;stroke-miterlimit:2;"><path id="entrada-vehiculos" d="M7.275,4.002l-0.034,0c-2.257,0 -4.113,1.856 -4.113,4.113l0,0.035c0,2.281 1.878,4.157 4.16,4.157c2.279,0 4.157,-1.876 4.157,-4.157l0,-0.035c0,-2.257 -1.856,-4.113 -4.113,-4.113l-0.057,0Zm6.449,2.079c-0.105,-0.003 -0.205,0.027 -0.293,0.08l-0.599,0.421l-0.587,-0.418c-0.054,-0.034 -0.115,-0.056 -0.179,-0.066c0.274,0.653 0.411,1.355 0.406,2.061c0.003,0.714 -0.142,1.421 -0.42,2.079l5.099,0c0.139,0.003 0.271,-0.049 0.371,-0.147l1.04,-1.039c0.095,-0.098 0.149,-0.232 0.146,-0.372l0,-1.039c-0.002,-0.137 -0.058,-0.267 -0.154,-0.364l-1.039,-1.04c-0.1,-0.095 -0.235,-0.149 -0.374,-0.147l-0.873,0c-0.135,-0.002 -0.264,0.052 -0.357,0.147l-0.585,0.602l-0.587,-0.602c-0.1,-0.095 -0.232,-0.149 -0.371,-0.147l-0.644,-0.009Zm-7.488,1.039c0.57,0 1.039,0.47 1.039,1.039c0,0.57 -0.469,1.037 -1.039,1.037c-0.57,0 -1.039,-0.467 -1.039,-1.037c0.002,-0.569 0.472,-1.037 1.039,-1.037l0,-0.002Zm-0.161,6.236c-1.047,0.003 -1.993,0.641 -2.387,1.609l-1.543,3.59l-0.585,0c-0.856,0 -1.56,0.702 -1.56,1.558c0,0.856 0.704,1.56 1.56,1.56l0,6.767c0,0.854 0.702,1.556 1.558,1.558l1.558,0c0.856,-0.002 1.558,-0.704 1.558,-1.558l0,-0.521l9.356,0l0,0.521c0,0.854 0.702,1.556 1.558,1.558l1.558,0c0.856,-0.002 1.558,-0.704 1.558,-1.558l0,-6.759c0.856,0 1.56,-0.702 1.56,-1.558c0,-0.856 -0.704,-1.56 -1.56,-1.56l-0.585,0l-1.528,-3.573c-0.396,-0.976 -1.348,-1.619 -2.399,-1.624l-9.677,-0.01Zm0,1.039l9.679,0c0.638,0.008 1.211,0.402 1.445,0.993l1.463,3.441l-0.504,0.34c-0.42,0.289 -0.919,0.436 -1.428,0.421l-11.631,0c-0.511,0.012 -1.01,-0.142 -1.428,-0.435l-0.504,-0.326l1.477,-3.46c0.232,-0.585 0.802,-0.971 1.431,-0.974Zm-0.617,8.315c0.717,0 1.309,0.592 1.309,1.309c0,0.719 -0.592,1.311 -1.309,1.311c-0.719,0 -1.31,-0.592 -1.31,-1.311l0,-0.025c0,-0.704 0.579,-1.284 1.286,-1.284l0.024,0Zm10.912,0c0.719,0 1.311,0.592 1.311,1.309c0,0.719 -0.592,1.311 -1.311,1.311c-0.719,0 -1.308,-0.592 -1.308,-1.311l0,-0.025c0,-0.704 0.58,-1.284 1.284,-1.284l0.024,0Z" style="fill:none;fill-rule:nonzero;stroke:#6a6e73;stroke-width:0.62px;"/></svg>