<?xml version="1.0" encoding="UTF-8" standalone="no"?><!DOCTYPE svg PUBLIC "-//W3C//DTD SVG 1.1//EN" "http://www.w3.org/Graphics/SVG/1.1/DTD/svg11.dtd"><svg width="100%" height="100%" viewBox="0 0 10 11" version="1.1" xmlns="http://www.w3.org/2000/svg" xmlns:xlink="http://www.w3.org/1999/xlink" xml:space="preserve" xmlns:serif="http://www.serif.com/" style="fill-rule:evenodd;clip-rule:evenodd;stroke-linejoin:round;stroke-miterlimit:2;"><path id="carjacking" d="M9.762,3.938l-1.168,0l-0.325,-0.811c-0.329,-0.831 -1.137,-1.379 -2.031,-1.376l-2.48,0c-0.893,-0.003 -1.701,0.544 -2.03,1.375l-0.325,0.812l-1.169,0c0,0 0,0 0,0c-0.128,0 -0.234,0.106 -0.234,0.234c0,0.02 0.002,0.039 0.007,0.057l0.117,0.469c0.026,0.104 0.12,0.178 0.227,0.178l0.392,0c-0.273,0.235 -0.43,0.578 -0.431,0.938l0,0.936c0.001,0.301 0.112,0.593 0.313,0.818l0,1.056c0,0.343 0.282,0.625 0.625,0.625l0.625,0c0.342,0 0.624,-0.282 0.624,-0.625l0,-0.625l4.999,0l0,0.625c0,0.343 0.282,0.625 0.625,0.625l0.625,0c0.342,0 0.624,-0.282 0.624,-0.625l0,-1.056c0.201,-0.225 0.312,-0.517 0.312,-0.818l0,-0.938c-0.001,-0.36 -0.158,-0.702 -0.431,-0.937l0.392,0c0.108,0 0.202,-0.074 0.227,-0.178l0.121,-0.468c0.005,-0.018 0.007,-0.037 0.007,-0.056c0,-0.129 -0.106,-0.235 -0.235,-0.235c-0.001,0 -0.002,0 -0.003,0Zm-6.874,-0.347c0.143,-0.356 0.488,-0.589 0.871,-0.589l2.479,0c0.383,0 0.729,0.233 0.871,0.589l0.389,0.972l-4.999,0l0.389,-0.972Zm-1.013,3.159c-0.342,0 -0.623,-0.281 -0.623,-0.623c0,-0.342 0.281,-0.623 0.623,-0.623c0.47,0.095 0.841,0.464 0.937,0.935c-0.001,0.369 -0.563,0.311 -0.937,0.311Zm6.248,0c-0.375,0 -0.938,0.062 -0.938,-0.312c0.097,-0.471 0.467,-0.84 0.938,-0.935c0.341,0 0.623,0.281 0.623,0.623c0,0.342 -0.282,0.623 -0.623,0.623c0,0 0,0.001 0,0.001Z" style="fill:#fff;fill-rule:nonzero;"/></svg>