<?xml version="1.0" encoding="UTF-8" standalone="no"?><!DOCTYPE svg PUBLIC "-//W3C//DTD SVG 1.1//EN" "http://www.w3.org/Graphics/SVG/1.1/DTD/svg11.dtd"><svg width="100%" height="100%" viewBox="0 0 10 12" version="1.1" xmlns="http://www.w3.org/2000/svg" xmlns:xlink="http://www.w3.org/1999/xlink" xml:space="preserve" xmlns:serif="http://www.serif.com/" style="fill-rule:evenodd;clip-rule:evenodd;stroke-linejoin:round;stroke-miterlimit:2;"><path id="homicidio" d="M9.802,10.113l-3.169,-1.542l3.169,-1.541c0.121,-0.06 0.198,-0.184 0.198,-0.319c0,-0.056 -0.013,-0.11 -0.038,-0.16l-0.32,-0.639c-0.06,-0.121 -0.184,-0.198 -0.319,-0.198c-0.056,0 -0.11,0.013 -0.16,0.038l-4.161,2.025l-4.166,-2.025c-0.05,-0.025 -0.104,-0.038 -0.16,-0.038c-0.135,0 -0.259,0.077 -0.319,0.198l-0.319,0.639c-0.024,0.049 -0.037,0.103 -0.037,0.158c0,0.136 0.078,0.261 0.201,0.321l3.164,1.541l-3.164,1.542c-0.121,0.06 -0.198,0.184 -0.198,0.319c0,0.056 0.013,0.11 0.038,0.16l0.319,0.639c0.06,0.121 0.184,0.198 0.319,0.198c0.056,0 0.11,-0.013 0.16,-0.038l4.162,-2.025l4.164,2.025c0.05,0.025 0.104,0.038 0.16,0.038c0.135,0 0.259,-0.077 0.319,-0.198l0.319,-0.639c0.024,-0.049 0.037,-0.104 0.037,-0.159c0,-0.136 -0.077,-0.26 -0.199,-0.32Zm-6.454,-4.813l-0.122,0.577c-0.012,0.04 -0.018,0.081 -0.018,0.123c0,0.22 0.167,0.407 0.385,0.432l2.809,0c0.218,-0.025 0.385,-0.212 0.385,-0.432c0,-0.042 -0.006,-0.083 -0.018,-0.123l-0.118,-0.577c0.934,-0.459 1.537,-1.403 1.563,-2.443c-0.103,-1.662 -1.549,-2.948 -3.212,-2.857c-1.665,-0.094 -3.114,1.193 -3.217,2.857c0.026,1.04 0.629,1.984 1.563,2.443Zm2.9,-2.8c0.392,0 0.714,0.322 0.714,0.714c0,0.392 -0.322,0.714 -0.714,0.714c-0.392,0 -0.714,-0.322 -0.714,-0.714c0.001,-0.392 0.323,-0.714 0.715,-0.714c0,0 0.001,0 0.001,0l-0.002,0Zm-2.5,0c0.392,0 0.714,0.322 0.714,0.714c0,0.392 -0.322,0.714 -0.714,0.714c-0.392,0 -0.714,-0.322 -0.714,-0.714c0.001,-0.392 0.323,-0.714 0.715,-0.714c0,0 0.001,0 0.001,0l-0.002,0Z" style="fill:#fff;fill-rule:nonzero;"/></svg>