<?xml version="1.0" encoding="UTF-8" standalone="no"?><!DOCTYPE svg PUBLIC "-//W3C//DTD SVG 1.1//EN" "http://www.w3.org/Graphics/SVG/1.1/DTD/svg11.dtd"><svg width="100%" height="100%" viewBox="0 0 10 11" version="1.1" xmlns="http://www.w3.org/2000/svg" xmlns:xlink="http://www.w3.org/1999/xlink" xml:space="preserve" xmlns:serif="http://www.serif.com/" style="fill-rule:evenodd;clip-rule:evenodd;stroke-linejoin:round;stroke-miterlimit:2;"><path id="hotel" d="M9.722,2.166c0.153,0 0.278,-0.125 0.278,-0.278l0,-0.555c0,-0.153 -0.125,-0.278 -0.278,-0.278l-9.444,0c-0.153,0 -0.278,0.125 -0.278,0.278l0,0.555c0,0.153 0.125,0.278 0.278,0.278l0.277,0l0,6.667l-0.277,0c-0.153,0 -0.278,0.125 -0.278,0.278l0,0.556c0,0.153 0.125,0.278 0.278,0.278l4.166,0l0,-1.39c0.001,-0.152 0.126,-0.277 0.278,-0.278l0.556,0c0.152,0.001 0.277,0.126 0.278,0.278l0,1.389l4.166,0c0.153,0 0.278,-0.125 0.278,-0.278l0,-0.555c0,-0.153 -0.125,-0.278 -0.278,-0.278l-0.278,0l0,-6.667l0.278,0Zm-5.278,0.778c0.008,-0.119 0.103,-0.214 0.222,-0.222l0.667,0c0.119,0.008 0.214,0.103 0.222,0.222l0,0.667c-0.008,0.119 -0.103,0.214 -0.222,0.222l-0.666,0c-0.119,-0.008 -0.214,-0.103 -0.222,-0.222l0,-0.667l-0.001,0Zm0,1.667c0.008,-0.119 0.103,-0.214 0.222,-0.222l0.667,0c0.119,0.008 0.214,0.103 0.222,0.222l0,0.667c-0.008,0.119 -0.103,0.214 -0.222,0.222l-0.666,0c-0.119,-0.008 -0.214,-0.103 -0.222,-0.222l0,-0.667l-0.001,0Zm-2.222,-1.667c0.008,-0.119 0.103,-0.214 0.222,-0.222l0.667,0c0.119,0.008 0.214,0.103 0.222,0.222l0,0.667c-0.008,0.119 -0.103,0.214 -0.222,0.222l-0.667,0c-0.119,-0.008 -0.214,-0.103 -0.222,-0.222l0,-0.667Zm0.889,2.556l-0.667,0c-0.119,-0.008 -0.214,-0.103 -0.222,-0.222l0,-0.667c0.008,-0.119 0.103,-0.214 0.222,-0.222l0.667,0c0.119,0.008 0.214,0.103 0.222,0.222l0,0.667c-0.008,0.119 -0.103,0.214 -0.222,0.222Zm0.222,2.222c0.022,-0.899 0.767,-1.626 1.667,-1.626c0.899,0 1.644,0.727 1.666,1.626l-3.333,0Zm4.445,-2.445c-0.008,0.119 -0.103,0.214 -0.222,0.222l-0.667,0c-0.119,-0.008 -0.214,-0.103 -0.222,-0.222l0,-0.666c0.008,-0.119 0.103,-0.214 0.222,-0.222l0.667,0c0.119,0.008 0.214,0.103 0.222,0.222l0,0.667l0,-0.001Zm0,-1.667c-0.008,0.119 -0.103,0.214 -0.222,0.222l-0.667,0c-0.119,-0.008 -0.214,-0.103 -0.222,-0.222l0,-0.666c0.008,-0.119 0.103,-0.214 0.222,-0.222l0.667,0c0.119,0.008 0.214,0.103 0.222,0.222l0,0.666Z" style="fill:#fff;fill-rule:nonzero;"/></svg>